<svg xmlns="http://www.w3.org/2000/svg" xmlns:xlink="http://www.w3.org/1999/xlink" width="818.388" height="818.388" viewBox="0 0 818.388 818.388">
  <defs>
    <clipPath id="clip-path">
      <path id="Path_109" data-name="Path 109" d="M443.464,190.705c-14.275,6.276-27.869,12.313-41.52,18.234-9.571,4.152-19.388,7.831-28.79,12.294-11.862,5.63-21.836,13.782-30.919,22.8-6.574,6.529-12.939,13.282-18.907,20.3-5.733,6.745-10.827,13.971-16.234,20.964a20.074,20.074,0,0,1-2.265,2.055c-1.824-3.583-3.391-6.951-5.238-10.176a15.561,15.561,0,0,0-3.952-5.091c-3.171-2.261-2.692-4.963-1.168-7.333a79.932,79.932,0,0,1,8.316-10.695c4.28-4.671,8.769-9.2,13.452-13.511a178.2,178.2,0,0,1,29.128-21.826A107.027,107.027,0,0,1,372.6,207.21c10.8-2.932,21.794-5.233,32.592-8.172,6.453-1.756,12.683-4.233,19.029-6.344A43.966,43.966,0,0,1,438.3,190.45q2.522,0,5.161.256m-42.622,94.118c-10.83,1.212-21.462,4.023-32.159,6.23A77.171,77.171,0,0,0,359,293.581c-6.717,2.329-13.6,4.416-19.942,7.471-9.681,4.662-18.963,10.059-28.737,15.318-.346-2.461-.668-5.271-1.147-8.057-.914-5.313-2.063-10.6-2.776-15.93-.171-1.28.7-2.9,1.566-4.05,4.322-5.734,8.959-11.26,13.192-17.05,7.6-10.393,16.026-20.062,26.314-28.218,5.8-4.6,11.039-10.029,17.428-13.7,10.329-5.934,21.309-10.9,32.183-15.948,9.36-4.349,18.9-8.357,28.465-12.309,6.461-2.67,13.071-5.029,19.656-7.424,2.3-.836,4.162.017,4.431,2.348.674,5.835,1.953,11.774,1.4,17.535-1.244,12.883-2.946,25.771-5.447,38.486-1.808,9.2-5.014,18.168-7.961,27.134-1.693,5.154-2.847,5.5-8.525,5.452-5.735-.045-11.508-.352-17.243-.352a98.993,98.993,0,0,0-11.014.535M236.729,246.231c7,.51,13.941,2.179,20.819,3.689a54.734,54.734,0,0,1,12.347,3.92c7.422,3.646,13.454,8.923,18.941,14.986,6.847,7.565,12.608,15.641,14.971,25.3,2.663,10.886,4.942,21.953,2.394,33.217-.776,3.43-1.511,6.907-5.388,8.861-1.295.653-2.008,2.331-3.256,3.871a44.244,44.244,0,0,0-26.577-14.95c-10.506-1.894-21.174-2.263-31.756.172-9.332,2.147-18.744,4-28.026,6.319a163.161,163.161,0,0,0-19.541,5.918c-8.6,3.343-15.788.266-22.563-3.861-5.454-3.322-11.068-6.959-15.156-11.594-6.314-7.16-11.666-15.17-14.242-24.4-1.709-6.12-3.647-12.25-4.483-18.495-.525-3.923.486-8.127,1.367-12.1a176.987,176.987,0,0,1,4.886-18.089c2.6-7.734,5.722-15.313,8.709-23.2,4.794,3.142,8.539,5.831,12.53,8.142a90.751,90.751,0,0,0,10.483,5.068c3.759,1.571,7.556,3.428,11.537,4.086a214.125,214.125,0,0,0,23.8,2.624c4.323.223,8.662.2,13,.182q1.889-.009,3.776-.012c3.82,0,7.634.055,11.431.332M114.941,326.045c-1.185,5.3-3.9,10.282-5.474,15.527-.653,2.169-1.574,2.708-3.766,2.927a54.672,54.672,0,0,0-11.757,2.014,7.949,7.949,0,0,1-8.035-1.266,64.653,64.653,0,0,1-9.93-9.781A176.892,176.892,0,0,0,49.7,308.814a42.767,42.767,0,0,1-5.794-5.924c-2.556-3.177-1.342-7.135,2.663-8.123,5.312-1.312,10.762-2.127,16.152-3.154,1.1-.209,2.223-.336,3.293-.637,8.454-2.375,16.749-5.593,25.378-6.986a101.93,101.93,0,0,1,36.618.636c2.962.6,5.337,1.935,6.348,5.534a86.109,86.109,0,0,0,7.162,18.084,75.5,75.5,0,0,0,11.962,16.849c4.657,4.719,10.883,8.065,16.431,12,.851.6,1.765,1.13,3.092,1.973-3.635,0-6.349.033-9.061-.006-7.822-.114-14.317-3.478-20.567-7.46-4.32-2.753-8.579-5.614-13.075-8.09a16.951,16.951,0,0,0-6.746-1.885c-.981-.071-1.967-.165-2.91-.165-2.587,0-4.838.713-5.7,4.587m259.264-11.15c7.813.928,15.848,1.149,23.367,3.1,13.2,3.431,26.159,7.728,39.054,12.1,7.987,2.705,15.668,6.208,23.487,9.354l-.412.985c-11.461.867-22.994,1.908-33.722,5.944-12.695,4.777-25.006,10.456-37.509,15.689a81.7,81.7,0,0,1-26.3,6.618c-8.74.57-17.511,1.466-26.241,1.248-12.173-.3-22.513-4.971-29.994-14.288-2.566-3.2-5.091-6.642-6.478-10.357-.619-1.657,1.022-4.881,2.687-6.31a71.938,71.938,0,0,1,12.82-8.94,121.067,121.067,0,0,1,18.624-8.232c6.417-2.133,13.32-2.928,19.869-4.756a58.689,58.689,0,0,1,15.82-2.444,41.668,41.668,0,0,1,4.923.288M126.884,334.109c9.093,16.155,20.185,30.922,34.363,43.463,3.812,3.372,8.439,5.93,12.691,8.861q-.119.5-.239.995c-6.12-.581-12.378-.588-18.33-1.863-11.854-2.54-23.087-6.918-32.292-14.558-10.655-8.843-15.917-20-9.56-34.46,1.684-3.83,2.253-8.258,7.664-10.838,1.916,2.8,4.057,5.476,5.7,8.4m140.538-6.75c10.334,1.331,19.553,5.423,26.513,13.046,2.777,3.041,2.454,9.042-.491,11.872-4.669,4.488-9.176,9.246-14.453,13.024-6.913,4.951-14.5,9.062-21.809,13.528-3.135,1.916-6.2,3.96-9.44,5.7-11,5.9-22.955,8.122-35.537,8.367-8.641.168-17.064-.564-25.232-3.162a44.542,44.542,0,0,1-6.89-3.4c-16.051-8.4-28.326-20.606-38.582-34.654-4.759-6.518-8.563-13.651-12.9-20.446-1.5-2.346-3.317-4.512-5.379-7.285,5.067.435,8.463,3.085,11.944,5.591,8.077,5.813,16.245,11.416,26.9,12.272,12.854,1.032,25.516.761,37.762-3.77,12.547-4.642,25.6-7.4,38.839-9.814a96.45,96.45,0,0,1,17.315-1.6,89.48,89.48,0,0,1,11.443.731m194.1,16.2.67,1.09c-2.46,3.253-5.06,6.421-7.356,9.775-7.754,11.325-19.11,19.38-29.311,28.431-6.72,5.962-15.26,9.078-24.562,10.022-4.091.415-8.159,1.036-12.255,1.4a75.5,75.5,0,0,1-43.736-9.2,52.15,52.15,0,0,1-15.264-12.407c9.044,0,18.249.65,27.3-.169,10.757-.972,21.39-3.143,31.347-7.511q12.7-5.569,25.525-10.879c9.472-3.914,18.889-7.949,29.492-8.587,4.861-.293,9.669-1.323,14.511-1.946a10.447,10.447,0,0,1,1.336-.075c.763,0,1.534.052,2.3.052M345.272,398.08a9.545,9.545,0,0,1-7.026-9.524l7.026,9.524M117.538,369.924c-3.753,1.541-6.98,2.949-10.272,4.2-17.224,6.564-35.354,8.375-53.691,8.589A76.643,76.643,0,0,0,18.2,391.845c-3.609,1.907-6.325,5.3-9.479,7.985-1.255,1.067-2.593,2.046-3.893,3.065l-1.18-.759a38.847,38.847,0,0,1,3.119-5.275c7.957-9.733,18.528-16.184,29.88-22.015,14.039-7.211,27.229-16.011,42.333-21.2,9.2-3.158,18.909-5,29.3-7.666.75,9.471,2.557,17.233,9.257,23.943m165.646,47.5-5.763-1.071c.7-1.238,1.193-3.342,2.148-3.55a4.2,4.2,0,0,1,.889-.105c2.048,0,2.428,2.011,2.726,4.726m-14.566-.236c-1.33.563-2.614,1.126-3.328-1.357-.234-.814,1.493-3.027,2.359-3.048,2.237-.055,4.355.868,3.522,4.176a1.486,1.486,0,0,0-.855-.254,4.637,4.637,0,0,0-1.7.484m-17.58,1.868q-.215,1.665-.428,3.33l-2.161.005q-.2-1.828-.391-3.655l2.98.319M421.947,287.388c10.248.484,20.858.514,30.573,3.148,13.408,3.636,26.833,8.042,37.665,17.282,7.281,6.212,15.473,11.479,22.722,17.72C523.866,334.973,534.25,345,545.1,354.549c4.786,4.214,4.469,7.516.146,12.607-5.2,6.128-11.269,11.617-17.1,17.254-5.485,5.3-11.007,10.583-16.772,15.609-7.921,6.906-15.262,14.686-25.331,18.876-6.647,2.767-13.771,4.561-20.771,6.505a6.052,6.052,0,0,1-6.571-1.953c-7.593-8.351-15.255-16.676-23.418-24.526-3.858-3.71-8.908-6.322-13.623-9.572,4.245-3.332,9.049-6.135,12.492-10.011,6.99-7.866,16.985-12.989,22.282-22.4,2.3-4.085,5.821-7.545,8.539-11.443,1.891-2.712,1.193-5.522-2.008-7.057-7.973-3.824-15.949-7.718-24.226-10.882-9.655-3.69-19.528-6.954-29.5-9.793a187.706,187.706,0,0,0-22.014-4.5,93.444,93.444,0,0,0-29.629-.05c-13.6,2.2-26.786,5.7-39.027,11.9-2.953,1.5-5.919,2.971-9.144,4.589-1.23-5.438,1.486-8.994,5.514-11.884,9.056-6.5,19-11.542,29.193-16.3,5.986-2.795,12.361-3.856,18.561-5.685,6.779-2,13.576-3.973,20.451-5.648a119.927,119.927,0,0,1,28.519-3.054c3.428,0,6.86.1,10.289.26M243.165,425.875h-4.721l-.653-.981,3.681-2.589,1.693,3.57m60.587-3.864-3.31,4.2-2.373-1.462,1.291-4.915,4.392,2.181m6.825,2.665a43.782,43.782,0,0,1,2.45,4.928l-5.7.325a41.04,41.04,0,0,1,1.116-5.05c.063-.185.9-.332,1.509-.332.31,0,.561.038.621.129m8.079,3.741c1.031.308,2.485,1.658,2.4,2.436-.126,1.106-1.484,2.088-2.316,3.122l-3.3-3.046c1.442-1.177,2.519-2.526,3.118-2.526a.359.359,0,0,1,.1.014m-130.02-35.278c1.939.634,3.927,1.132,4.9,1.409-9.06,4.44-18.622,9.061-28.12,13.8-10.41,5.191-20.856,10.33-31.092,15.812-4.51,2.415-8.394,5.849-12.84,8.391a34.662,34.662,0,0,1-10.146,4.139c-11.287,2.243-22.543,1.558-33.785-.956-16.937-3.787-32.09-11.083-46.77-19.651-6.206-3.623-13.181-6.076-19.8-9.063-1.22-.55-2.435-1.11-3.492-1.593a45.737,45.737,0,0,1,24.574-16.7,102.526,102.526,0,0,1,21.827-3.277c13.669-.623,27.361-1.121,40.618-4.4,7.79-1.926,15.189-5.237,22.824-7.766a4.931,4.931,0,0,1,3.724.375A96.074,96.074,0,0,0,151.429,387.3c6.785,1.774,13.444,2.859,20.279,2.318q.887-.07,1.75-.069c5.438,0,10.21,1.968,15.178,3.591M328.648,438.19l-.29,1.158-4.517,1.762,1.393-4.632,3.414,1.712m.412,10.889c-.015.683-1.258,1.678-2.135,1.892-.581.142-1.474-.849-2.914-1.774l3.328-2.6c.624.828,1.738,1.666,1.722,2.482m98-53.043c9.844,7.465,18.2,16.241,26.117,25.44,6.593,7.657,13.312,15.217,19.93,22.855,1.721,1.986,3.274,4.1,5.477,6.88-17.737-3.715-33.765-8.892-47.955-18.59-14.094-9.632-23.558-23.1-34.619-35.671,5.076-1.116,10.317-1.242,14.349-3.385a13.942,13.942,0,0,1,6.589-1.833c3.633,0,6.794,1.789,10.112,4.3m-181.4,54.995c.847.1,1.542,1.363,2.3,2.12-.859.706-1.626,1.755-2.611,1.985-.569.133-1.487-1.052-2.728-2.018,1.3-.95,2.209-2.091,2.956-2.091a.765.765,0,0,1,.081,0m78.765,5.238a3.446,3.446,0,0,1-2.289,2.422c-.8.15-1.9-1.092-3.667-2.236,1.8-1.3,2.773-2.431,3.935-2.644a.283.283,0,0,1,.047,0,3.5,3.5,0,0,1,1.975,2.462m-58.276-.089a13.435,13.435,0,0,1,3.056,2.52c-.634.587-1.439,1.762-1.871,1.652-1.341-.344-2.541-1.177-4.857-2.366,1.821-.937,2.919-1.839,3.5-1.839a.42.42,0,0,1,.172.033m128.592-55.646c5.719,6.2,10.821,12.935,16.84,18.851,12.944,12.722,27.179,23.784,45.724,28.772,5.848,1.573,11.557,3.638,17.256,5.663,4.089,1.453,5.284,2.945,5.752,6.688-1.96.1-3.974.589-5.791.219-12.073-2.456-24.083-5.183-36.155-7.641-6.479-1.32-13.051-2.229-19.562-3.415a85.213,85.213,0,0,1-24.626-8.948c-17.121-9.059-30.047-22.411-42.056-36.64-2.669-3.163-4.45-6.985-6.707-10.465-1.386-2.136-2.9-4.2-4.776-6.892,5.39,2.212,10.117,4.436,15.053,6.117,9.828,3.347,20,5.46,30.488,4.465q.65-.062,1.253-.061a9.4,9.4,0,0,1,7.308,3.288M295.05,461.282c-3.96-2.864-4.245-4.573-2.049-10.766.874-2.464,1.339-5.056,1.99-7.59l-1.3-.418c-.806,2.025-1.727,4.016-2.387,6.082-.718,2.245-.757,4.784-1.908,6.777-1.033,1.789-3.172,3.012-4.615,4.3-6.975-4.739-1.217-9.511-.978-14.143a17.57,17.57,0,0,0,.127-4.192c-4.1,5.369-2.842,13.57-10.609,16.441-6.359-3.8-2.262-8.49-1.405-12.924.394-2.038.8-4.075,1.2-6.112l-1.35-.355-4.86,14.365-5.486,3.056c-5.641-3.992-1.33-8.423-.209-12.788a28.259,28.259,0,0,0,1.018-5.7c-4.526,4.755-4.142,12.04-9.757,16.515-5.8-6.761.631-12.721.634-18.831l-1.128-.35-6.062,13.714c-3.8-7.211,1.714-12.866,2.471-19.019l-1.14-.465-6.6,13.2-3.907-6.973c1.475-2.945,2.641-6.434,7.5-6.9,1.059-.1,1.9-2.189,3.087-3.666,2.71.723,5.493.629,7.652-2.384.267-.372,1.125-.3,2.043-.232a4.115,4.115,0,0,0,2.414-.233c4.3-3.152,10.05-.065,14.223-3.217,3.908,2.365,8.1,1.689,12.369,1.28,1.33-.128,2.751,1.29,4.22,1.54a24.165,24.165,0,0,0,4.844-.156c.472,1.418.558,4.187,2.07,5.488,1.437,1.237,4.365.94,7.082,1.392.676.987,1.478,3.41,3.18,4.289s4.283.191,6.685.191c1.572,3.916,1.855,4.112,6.258,4.31l3.742,7.486-3.784,7.361-1.042-.434q-.151-2.851-.3-5.7l-1.434-.083c-.3,3.709-.594,7.418-.9,11.25-3.658.05-4.745-1.132-3.614-4.346.624-1.773.409-3.808.573-5.725l-1.2-.236q-2.291,6.916-4.593,13.862c-4.366-1.705-5.712-3.738-3.693-7.529,1.058-1.985.883-4.552.809-7.033-3.588,5.1-3.3,12.268-9.877,15.609m-16.6-2.509c4.161.679,1.612,2.991,1.769,4.443l-5.837-1.143c.266-1.919.721-3.4,2.963-3.4a6.9,6.9,0,0,1,1.105.1m36.588,1.6c1,2.974-1.618,3.642-3.946,4.694-1.351-2.44-1.914-4.537.688-5.773a1.236,1.236,0,0,1,.516-.09c.973,0,2.559.624,2.742,1.169m-12.755.519c.946.183,1.5,2.145,2.236,3.3l-6.52,1.6c-.253-3.712,1.159-5.008,3.169-5.008a5.9,5.9,0,0,1,1.116.115m-13.258.149c1.334.265,2.364,1.9,3.531,2.908l-4.514,4.159c-1.144-1.624-2.374-2.6-2.221-3.309.319-1.492.3-3.839,2.454-3.839a3.853,3.853,0,0,1,.75.08M186.472,409.619A123.48,123.48,0,0,0,155,447.3c-7.656,14.232-16.289,28.09-28.782,39.144-8.356,7.393-17.709,13.619-29.3,16.151-4.24.926-8.215,2.883-12.427,3.97-6.129,1.583-12.345,2.879-18.556,4.159a64.629,64.629,0,0,0-21.019,8.846,10.649,10.649,0,0,1-1.251.571l-.966-.785c2.686-4.585,4.952-9.451,8.151-13.693,5.617-7.448,11.331-14.924,17.865-21.646,10.22-10.513,21.117-20.446,31.8-30.557a199.209,199.209,0,0,1,40.3-29.97c9.216-5.108,18.91-9.454,28.4-14.122,6.954-3.42,13.806-7.053,20.933-10.117a51.771,51.771,0,0,1,13.787-3.426c-5.823,4.593-11.7,9.124-17.459,13.793m244.8,52.251c8.048,8.509,13.52,18.458,17.777,29.044,3.125,7.77,6.536,15.454,9.252,23.35,2.566,7.458,4.192,15.2,6.6,22.711,1.971,6.138,4.576,12.094,6.723,18.185a83.621,83.621,0,0,1,1.944,8.281c-2.916-2.37-4.841-4.232-7.064-5.691a78.3,78.3,0,0,1-24.433-24.911A64.424,64.424,0,0,1,433,499.255c-.048-12.238-3.968-23.346-10-33.873-2.839-4.952-6.573-9.448-10.166-14.524,8.153,1.136,13.52,5.813,18.436,11.012M362.341,420c9.7,9.6,20.332,18.334,33.144,24.2,15.668,7.176,24.248,19.561,30.284,34.356,3.524,8.637,3.527,17.505,4.272,26.387,1.14,13.59,6.223,25.667,14.913,36.58a82.565,82.565,0,0,0,19.1,17.7,17.81,17.81,0,0,1,5.023,5.389,8.2,8.2,0,0,1-2.172-.319c-8.832-3.945-17.482-8.3-26.5-11.807-7.711-3-15.807-5.144-23.8-7.475-11.548-3.37-23.431-5.9-34.649-10.039-9.874-3.645-19.3-8.661-26.592-16.332-7.007-7.372-12.72-15.5-16.261-24.922-1.5-3.99-3.766-7.733-5.156-11.751-1.972-5.7-3.468-11.551-5.143-17.344-.459-1.59-.862-3.2-1.23-4.81-.572-2.507-1-4.735,2.648-5.841,3.072-.931,2.419-3.786,2.22-6.1q-1.079-12.54-2.3-25.069c-.206-2.162-.56-4.311-.847-6.465l-1.2-.051a15.466,15.466,0,0,0-.659,3.265c.037,3.3.239,6.6.4,9.9.1,2.124-.368,3.8-2.614,3.779a66.794,66.794,0,0,1-2.844-6.9,36.157,36.157,0,0,1-1.17-6.925c-.42-4.727-.668-9.467-.987-14.2l-1.829.044c0,2.148,0,4.3,0,6.445-.011,3.892.03,7.786-.089,11.676a7.382,7.382,0,0,1-1.009,2.385c-.905-.426-2.413-.681-2.615-1.308a53.762,53.762,0,0,1-2.463-9.8c-.432-3.512-.107-7.1-.244-10.654A27.762,27.762,0,0,0,311.24,400l-.985-.082a16.572,16.572,0,0,0-.74,3.406c-.039,5.07.192,10.146.01,15.21-.049,1.348-1.214,2.661-2.138,4.542-7.628-8.231-3.815-17.565-7.082-25.834-.218,2.4-.6,4.793-.608,7.191a60.658,60.658,0,0,0,.532,8.137c.4,3.036-.776,4.827-3.836,5.359-4.878-7.429-1.754-15.747-2.441-23.644l-1.122,0c-.587,4.127-1.376,8.24-1.7,12.386-.246,3.184.179,6.452-4.669,7.2l-5.2-4.586,5.012-22.806c-5.816,8.191-4.381,18.847-10.791,26.772-6.433-3.013-6.362-3.054-4.748-9.12a52.077,52.077,0,0,0,1.764-11.545c-4.223,6.888-2.665,16.3-11.153,21.365-3.4-.963-2.147-3.52-1.629-5.873.881-4.006,1.734-8.017,2.6-12.027l-1.228-.346c-1.046,3.161-2.195,6.3-3.1,9.49-.709,2.489-.78,5.186-1.8,7.533-.568,1.307-2.5,2.088-3.816,3.107-.264-1.1-.885-2.242-.723-3.279.486-3.124,1.308-6.2,1.927-9.308a4.089,4.089,0,0,0-.374-2.458c-4.223,5.8-2.642,14.337-10.429,18.851-.883-4.942,1.789-9.205,2.56-13.688l-.981-.382c-3.143,6.715-6.286,13.43-9.568,20.442l-3.772.879c1.325-4.762,2.565-9.223,3.8-13.658l-.745-.343c-1.32,4.923-7.629,5.432-9.74,10.015-1.3,2.825-4.986,4.588-6.891,7.274a241.865,241.865,0,0,0-13.859,21.07c-3.72,6.615-6.169,13.854-9.625,20.615a80.058,80.058,0,0,1-8.387,13.345,101.726,101.726,0,0,1-31.015,25.673,96.068,96.068,0,0,1-44.856,12.109c-13.621.317-27.246.429-40.867.745-2.872.066-5.73.881-8.6.894-4.758.021-9.517-.328-14.275-.521l-.476-1.823c4.752-2.41,9.259-5.541,14.312-7.066,8.417-2.54,17.248-3.831,25.79-6.042,18.415-4.767,35.112-12.241,48.068-26.185,10.018-10.783,17.314-23.082,24.282-35.611a121.243,121.243,0,0,1,35-39.436c5.426-3.957,11.022-7.71,16.606-11.47a7.042,7.042,0,0,1,3.085-.954c4.971-.525,9.962-.88,14.931-1.418,10.052-1.088,18.81-5.223,27.215-10.255,4.889-2.927,10.058-5.441,14.912-8.416,7.276-4.459,14.317-9.179,19.848-15.689,2.1-2.473,5.1-4.271,7.731-6.413a90.171,90.171,0,0,1,7.265,5.956c4.2,4.247,8.089,8.767,12.271,13.031.942.96,3.487,2.1,3.718,1.854,1.883-2.016-.6-2.592-1.7-3.644a4.1,4.1,0,0,1-.556-.928c6.518.28,7.269,1.567,7.533,12.784,2.019.018,2.019.018,3.256-5.91l7.554,9.167c-2.832,2.113-2.5,5.814,2.449,12.05,3.163,3.984,3.931,4.235,6.537,2.535C351.146,406.87,356.2,413.92,362.341,420m-85.062,49.929c-1.274,4.017-2.515,9.415-4.688,14.457-4.053,9.4-8.389,18.717-13.088,27.848a95.275,95.275,0,0,1-18.843,25.562c-11.83,11.34-22.887,23.393-34.38,35.049-2.865,2.906-6.141,5.451-9.228,8.162l-.89-.708c.143-2.772.443-5.545.4-8.315a82.828,82.828,0,0,0-3.307-21.272c-1.837-6.518-1.736-13.541-2.267-20.357-.355-4.555-.45-9.138-.431-13.708.027-6.57-.124-13.173.522-19.7a99.855,99.855,0,0,1,3.418-18.343,86.513,86.513,0,0,1,7.368-18.369c5.51-9.685,11.732-19.035,18.094-28.257,2.91-4.219,6.865-7.8,10.911-12.295-2.682,5.9-3.132,11.155-.562,16.6-3.516,4.257-2.116,6.864,4.829,7.944-.55,3.731.229,6.822,5.06,6.979.874,6.012,3.859,7.8,9.7,5.953l.775,3.653,10.006.576c2.285,4.745,5.141,5.295,9.721,1.5l6.88,7.041m47.969-7.844c.91,4.024,1.439,8.644,3.021,12.92,4.446,12.017,8.549,24.248,16.631,34.7,3.006,3.889,2.945,8.227,1.746,12.157-3.1,10.157-8.42,19.354-14.611,28.238-8.856,12.707-16.98,25.866-25.338,38.878-2.4,3.74-4.4,7.714-6.836,11.43-1.563,2.38-4.027,2.46-6.066.229-3.554-3.887-6.63-8.187-10.391-11.876-5.363-5.259-11.093-10.2-16.792-15.141-10.166-8.821-18.9-18.555-22.907-31.326a4.477,4.477,0,0,1,.719-3.763,149.109,149.109,0,0,0,26.1-41.623c3.518-8.281,6.417-16.8,9.436-25.263a43.424,43.424,0,0,0,1.3-6.608l1.336.117c2.382,4.574,5.864,7.3,12.781,1.438,6.288,3.032,9.191,2.788,11-.138a61.008,61.008,0,0,0,7.963.359c3.383-.292,4.176-2.755,4.209-5.557l6.7.825M297.292,605.425c2.281,0,4.46-1.309,6.2-3.926a49.1,49.1,0,0,0,5.33-9.682c4.518-12.1,12.215-22.576,19.759-32.95,9.225-12.686,18.382-25.185,22.054-40.881,3.722,3.268,6.995,6.832,10.953,9.49,14.572,9.789,31.277,14.8,48.448,18.893A272.4,272.4,0,0,1,440,555.254c10.206,3.714,19.963,8.514,29.977,12.713a4.7,4.7,0,0,0,6.685-4.48,12.668,12.668,0,0,0-.711-4.162c-2.685-7.446-5.722-14.786-8.173-22.3-3.7-11.337-6.6-22.915-10.589-34.154-5.576-15.716-12.348-30.965-24.228-43.631-1.517-1.618-3.085-3.194-5.178-5.356,1.623.229,2.44.289,3.227.464,5.711,1.269,11.4,2.626,17.129,3.825,5.489,1.15,11.041,2.036,16.518,3.234,5.589,1.222,10.973,3.075,16.966,1.88,4.43-.883,4.853-1.23,3.685-5.386-1.666-5.928-5.951-10.245-9.794-14.826-3.9-4.647-8.031-9.121-12.451-14.111,1.62-.324,2.332-.515,3.058-.6a57.88,57.88,0,0,0,26.206-9.735c9.746-6.813,18.518-14.9,27.449-22.7,6.783-5.925,13.253-12.179,19.68-18.453,3.713-3.626,7.521-7.3,10.45-11.468,2.986-4.253,2.488-9.331-.131-11.685-7-6.287-13.867-12.714-21.107-18.744-12.593-10.488-25.43-20.716-38.157-31.06-11.307-9.19-25.322-12.909-39.116-16.974-4.09-1.2-8.489-1.48-12.936-2.213,1.544-4.665,3.122-9.09,4.468-13.579,1.822-6.071,3.85-12.122,5.1-18.3,1.991-9.846,3.761-19.756,4.975-29.71,1.2-9.882,3.131-19.852-1.664-29.594-2.4-4.869-4.324-6.953-10.251-6.437a117.357,117.357,0,0,0-18.74,3.03c-9.626,2.455-19.053,5.594-28.579,8.4-5.114,1.506-10.183,3.807-15.4,4.192-10.724.793-19.983,5.183-28.991,9.739a125.95,125.95,0,0,0-34.252,24.885c-1.871,1.945-3.995,3.674-6.554,6.007a32.381,32.381,0,0,1-.318-3.9c.54-8.837,1.178-17.669,1.692-26.507.665-11.441,1.377-22.882,1.809-34.332.272-7.2.215-14.421.052-21.627-.449-20-.823-40.006-1.64-59.994-.472-11.55-1.673-23.075-2.681-34.6-.514-5.88-1.132-11.763-2.052-17.6-1.157-7.334-2.57-14.636-4.063-21.918q-2.025-9.872-4.528-19.652c-.309-1.214-1.646-2.2-2.508-3.286l-.852.64c2.093,9.549,4.468,19.052,6.2,28.658,2,11.05,3.717,22.161,5.016,33.3,1.225,10.5,1.788,21.072,2.565,31.617.678,9.191,1.544,18.382,1.8,27.586q.524,19.083.206,38.184c-.2,12.4-.86,24.8-1.407,37.2-.556,12.617-1.084,25.237-1.912,37.839-.292,4.437-.423,9.3-2.454,13.111-2.493,4.672-6.9,8.439-11.183,13.414.135-2.529.134-4.021.306-5.494.922-7.863,2.011-15.71,2.8-23.583.72-7.171,1.253-14.362,1.654-21.554.67-12.02,1.7-24.052,1.621-36.073-.141-21.054-.931-42.107-1.6-63.156-.419-13.221-.574-26.48-1.821-39.64-1.492-15.754-3.761-31.457-6.215-47.109-1.2-7.649-3.528-15.147-5.5-22.677-.221-.843-1.468-1.448-2.941-2.814a18.861,18.861,0,0,0,.015,2.776c1.5,6.073,3.158,12.113,4.5,18.216s2.522,12.243,3.488,18.406c1.246,7.947,2.565,15.908,3.211,23.908.988,12.232,1.481,24.5,2.085,36.758.609,12.374,1.221,24.75,1.6,37.131.334,10.988.436,21.985.473,32.978.032,9.541.276,19.109-.369,28.618-1.068,15.784-2.707,31.536-4.249,47.289-.568,5.807-1.546,11.579-2.469,18.339-1.678-1.446-2.421-2.16-3.243-2.781-4.058-3.067-7.685-7.118-12.3-8.95a182.519,182.519,0,0,0-29.014-9.006c-4.846-1.036-9.965-.971-15.072-.906-1.983.026-3.963.051-5.926.011-1.477-.029-2.958.052-4.438.133-1.649.09-3.3.181-4.938.119-6.009-.228-12.01-1.006-18.011-.979-10.22.045-18.633-5.464-28.122-7.586-.219-.049-.383-.3-.581-.444-4.3-3.2-8.625-6.371-12.9-9.6-2.058-1.552-3.813-1.434-6.067-.029-3.558,2.218-4.2,5.785-5.217,9.065-2.7,8.706-4.959,17.532-7.548,26.269-1.64,5.534-3.666,10.97-3.356,16.847.1,1.953.016,3.914.016,6.165-4.032-.773-7.66-1.867-11.35-2.109-18.048-1.188-35.733.335-52.7,6.824-2.277.871-4.855,1.032-7.279,1.58-6.737,1.522-13.957,1.288-19.955,5.521-1.932,1.364-2.6,2.527-2.313,4.62.675,4.915,4.587,7.672,7.944,10.791,6.915,6.426,14.171,12.553,20.732,19.283,5.942,6.1,9.137,14.41,17.587,19.109-1.218.638-2.019,1.122-2.872,1.5-10.241,4.508-20.714,8.6-30.672,13.608S31.91,374.429,22.21,379.9c-8.733,4.924-15.26,11.951-20.83,19.748A6.321,6.321,0,0,0,0,403.164v.082c.023,2.128,1.833,3.773,5.09,4.93a160.229,160.229,0,0,1,15.9,6.071c10.75,5.17,21.177,10.934,31.918,16.123C67.37,437.358,83.017,440.2,99.118,440.8c4.124.153,8.3-.869,12.964-1.412a18.1,18.1,0,0,1-1.7,1.869c-16.969,13.482-32.222,28.592-46.96,44.164-4.136,4.37-7.39,9.47-11.353,14A58.615,58.615,0,0,0,40.61,518.186c-1.1,3.057.534,7.821,2.986,8.026,5.845.489,11.724.73,17.593.811,3.751.052,7.507-.5,11.264-.537,3.721-.041,7.446-.021,11.17,0,6.82.038,13.638.076,20.435-.266a164.685,164.685,0,0,0,26.432-3.057c12.087-2.613,23.093-7.926,33.295-14.671a116.837,116.837,0,0,0,26.165-24.134c-.161,2.093-.209,3.172-.332,4.244-.645,5.619-1.725,11.227-1.867,16.857a219.7,219.7,0,0,0,.622,23.037c.648,8.088,1.646,16.181,3.1,24.175,1.69,9.327,4.234,18.535,1.492,28.05a6.884,6.884,0,0,0-.024,1.946c5.226,3.5,8.549-.618,11.135-3.043,8.625-8.086,16.59-16.795,24.864-25.217,3.806-3.875,7.742-7.638,11.856-11.685a19.666,19.666,0,0,0,.876,3.641,82.913,82.913,0,0,0,17.764,24.506c9.225,8.709,18.31,17.549,27.4,26.389,1.64,1.6,2.895,3.538,4.486,5.185a8.493,8.493,0,0,0,5.977,2.982Z" transform="translate(0 0)" fill="#fcfffd"/>
    </clipPath>
  </defs>
  <g id="Group_155" data-name="Group 155" transform="translate(0 390.288) rotate(-45)" clip-path="url(#clip-path)">
    <rect id="Rectangle_130" data-name="Rectangle 130" width="552.894" height="605.425" transform="translate(0 0)" fill="#fcfffd"/>
  </g>
</svg>
