<svg id="Group_76" data-name="Group 76" xmlns="http://www.w3.org/2000/svg" xmlns:xlink="http://www.w3.org/1999/xlink" width="805.383" height="539.456" viewBox="0 0 805.383 539.456">
  <defs>
    <clipPath id="clip-path">
      <path id="Path_33" data-name="Path 33" d="M647.084,3.973c-20.829,8.1-40.665,15.9-60.584,23.544-13.965,5.361-28.29,10.111-42.008,15.873-17.308,7.269-31.862,17.795-45.116,29.444-9.593,8.431-18.88,17.149-27.589,26.216-8.365,8.709-15.8,18.04-23.688,27.068a28.321,28.321,0,0,1-3.305,2.653c-2.662-4.627-4.948-8.975-7.643-13.139-1.544-2.384-3.272-5-5.767-6.574-4.626-2.919-3.928-6.408-1.7-9.469A106.011,106.011,0,0,1,441.812,85.78c6.245-6.031,12.8-11.875,19.629-17.446a260.056,260.056,0,0,1,42.5-28.182A167.707,167.707,0,0,1,543.68,25.284c15.76-3.786,31.8-6.756,47.557-10.552,9.417-2.268,18.506-5.466,27.767-8.191a71.813,71.813,0,0,1,20.549-2.9q3.68,0,7.531.33M584.891,125.5c-15.8,1.566-31.317,5.194-46.926,8.045a124.607,124.607,0,0,0-14.123,3.263c-9.8,3.007-19.843,5.7-29.1,9.647-14.126,6.019-27.669,12.989-41.931,19.779-.5-3.177-.975-6.806-1.674-10.4-1.333-6.86-3.01-13.681-4.051-20.569-.25-1.653,1.023-3.747,2.285-5.23,6.307-7.4,13.073-14.539,19.25-22.015,11.088-13.419,23.384-25.9,38.4-36.435,8.459-5.934,16.107-12.949,25.43-17.688,15.072-7.662,31.093-14.07,46.96-20.592,13.658-5.615,27.585-10.791,41.534-15.893,9.428-3.448,19.073-6.493,28.681-9.586,3.354-1.079,6.073.022,6.465,3.032.983,7.534,2.85,15.2,2.038,22.641a457.806,457.806,0,0,1-7.949,49.693c-2.638,11.873-7.316,23.459-11.616,35.036-2.471,6.655-4.154,7.1-12.439,7.04-8.368-.058-16.791-.455-25.16-.455-5.39,0-10.758.165-16.072.691M345.425,75.667c10.218.659,20.342,2.814,30.378,4.763a87.518,87.518,0,0,1,18.017,5.062c10.829,4.708,19.631,11.521,27.637,19.349,9.991,9.768,18.4,20.2,21.845,32.67,3.886,14.056,7.211,28.345,3.493,42.89-1.132,4.428-2.205,8.919-7.862,11.441-1.89.843-2.931,3.009-4.751,5-10.216-10.594-23.413-16.852-38.779-19.3-15.33-2.445-30.9-2.922-46.337.222-13.617,2.773-27.351,5.164-40.9,8.159a261.689,261.689,0,0,0-28.513,7.641c-12.554,4.316-23.037.344-32.923-4.985-7.958-4.289-16.15-8.985-22.115-14.97-9.213-9.244-17.022-19.588-20.781-31.5-2.494-7.9-5.321-15.817-6.541-23.88-.766-5.066.709-10.494,2-15.618a208,208,0,0,1,7.129-23.357c3.8-9.986,8.349-19.773,12.708-29.951,6.994,4.057,12.459,7.529,18.284,10.513a140.479,140.479,0,0,0,15.3,6.544c5.485,2.029,11.025,4.426,16.834,5.276,11.465,1.676,23.1,2.857,34.722,3.388,6.308.288,12.639.262,18.968.235q2.757-.012,5.51-.016c5.573,0,11.139.071,16.68.429M167.717,178.722c-1.73,6.843-5.684,13.276-7.987,20.049-.952,2.8-2.3,3.5-5.5,3.78-5.781.511-11.737,1-17.155,2.6-4.723,1.392-8.621.635-11.724-1.635a89.978,89.978,0,0,1-14.49-12.63c-11.2-12.734-24.248-23.951-38.346-34.413a59.124,59.124,0,0,1-8.455-7.649c-3.73-4.1-1.959-9.212,3.886-10.488,7.75-1.694,15.7-2.746,23.569-4.073,1.6-.27,3.244-.434,4.8-.822,12.335-3.067,24.439-7.222,37.031-9.021a167.763,167.763,0,0,1,53.431.821c4.323.778,7.788,2.5,9.263,7.145a104.04,104.04,0,0,0,10.451,23.35c4.788,7.727,10.4,15.433,17.454,21.756,6.8,6.092,15.88,10.414,23.976,15.495,1.242.779,2.575,1.459,4.512,2.548-5.3,0-9.264.043-13.222-.008-11.413-.147-20.89-4.491-30.011-9.633-6.3-3.555-12.519-7.249-19.079-10.446a27.236,27.236,0,0,0-9.844-2.434c-1.432-.091-2.871-.213-4.246-.213-3.775,0-7.06.921-8.323,5.922m378.307-14.4c11.4,1.2,23.124,1.483,34.1,4.009,19.256,4.431,38.169,9.978,56.986,15.617,11.654,3.493,22.863,8.016,34.271,12.077l-.6,1.273c-16.723,1.12-33.552,2.463-49.205,7.675-18.524,6.168-36.488,13.5-54.731,20.258-12.238,4.533-24.945,7.771-38.37,8.545-12.753.736-25.552,1.893-38.29,1.612-17.762-.394-32.851-6.419-43.765-18.448-3.744-4.127-7.429-8.576-9.453-13.373-.9-2.14,1.491-6.3,3.92-8.148a106.183,106.183,0,0,1,18.706-11.544,189.061,189.061,0,0,1,27.176-10.628c9.363-2.754,19.436-3.781,28.992-6.141a95.952,95.952,0,0,1,23.084-3.155,68.628,68.628,0,0,1,7.184.371m-360.881,24.81c13.268,20.859,29.452,39.926,50.141,56.119,5.563,4.355,12.313,7.656,18.518,11.442q-.174.642-.348,1.284c-8.929-.75-18.062-.759-26.747-2.406-17.3-3.28-33.688-8.933-47.119-18.8-15.548-11.417-23.225-25.828-13.949-44.495,2.458-4.946,3.287-10.663,11.183-13.994,2.8,3.613,5.919,7.071,8.321,10.847m205.067-8.716c15.079,1.718,28.531,7,38.686,16.845,4.052,3.927,3.58,11.675-.716,15.329-6.813,5.8-13.39,11.939-21.089,16.816-10.087,6.392-21.164,11.7-31.823,17.467-4.574,2.474-9.04,5.113-13.774,7.357-16.058,7.613-33.494,10.487-51.854,10.8-12.608.217-24.9-.728-36.817-4.082-3.541-1-6.743-2.854-10.053-4.387-23.421-10.842-41.332-26.606-56.3-44.745-6.944-8.416-12.495-17.626-18.83-26.4-2.188-3.029-4.839-5.826-7.849-9.406,7.394.561,12.348,3.984,17.429,7.219,11.785,7.506,23.7,14.741,39.253,15.845,18.756,1.333,37.232.982,55.1-4.867,18.308-5.993,37.362-9.56,56.672-12.671a158.537,158.537,0,0,1,25.265-2.068,147.315,147.315,0,0,1,16.7.944m283.228,20.92.978,1.407c-3.59,4.2-7.383,8.291-10.733,12.621-11.314,14.623-27.884,25.024-42.769,36.71-9.8,7.7-22.267,11.721-35.839,12.941-5.969.536-11.906,1.338-17.881,1.814a122.217,122.217,0,0,1-63.817-11.879,75.009,75.009,0,0,1-22.272-16.02c13.2,0,26.628.839,39.84-.218,15.7-1.255,31.212-4.059,45.741-9.7q18.529-7.191,37.246-14.047c13.821-5.053,27.561-10.263,43.033-11.088,7.092-.378,14.108-1.708,21.174-2.513a17.213,17.213,0,0,1,1.949-.1c1.114,0,2.238.067,3.352.067M503.807,271.734a12.636,12.636,0,0,1-10.253-12.3l10.253,12.3m-332.3-36.355c-5.476,1.989-10.185,3.808-14.988,5.428-25.133,8.475-51.588,10.814-78.343,11.091a123.46,123.46,0,0,0-51.613,11.786c-5.266,2.462-9.229,6.846-13.832,10.31-1.831,1.377-3.783,2.641-5.68,3.957l-1.722-.98c1.5-2.282,2.669-4.775,4.552-6.811,11.61-12.568,27.035-20.9,43.6-28.426,20.485-9.311,39.731-20.673,61.771-27.37,13.424-4.078,27.592-6.456,42.748-9.9,1.094,12.23,3.73,22.251,13.508,30.915m241.7,61.333-8.409-1.383c1.025-1.6,1.741-4.316,3.134-4.584a6.892,6.892,0,0,1,1.3-.136c2.988,0,3.543,2.6,3.977,6.1m-21.254-.3c-1.94.727-3.815,1.453-4.856-1.752-.342-1.052,2.178-3.908,3.441-3.936,3.264-.071,6.355,1.121,5.139,5.392a2.376,2.376,0,0,0-1.248-.328,7.447,7.447,0,0,0-2.476.624M366.3,298.819q-.314,2.15-.625,4.3l-3.153.007q-.286-2.361-.571-4.719l4.349.412M615.686,128.808c14.954.625,30.436.664,44.61,4.065,19.564,4.695,39.154,10.384,54.959,22.314,10.625,8.02,22.578,14.822,33.156,22.88,15.991,12.183,31.144,25.125,46.975,37.459,6.984,5.441,6.521,9.7.212,16.278-7.591,7.912-16.443,15-24.952,22.279-8,6.845-16.061,13.665-24.474,20.154-11.558,8.917-22.27,18.962-36.961,24.373-9.7,3.572-20.094,5.889-30.309,8.4a9.569,9.569,0,0,1-9.588-2.522c-11.08-10.782-22.26-21.532-34.17-31.667-5.63-4.791-13-8.163-19.878-12.36,6.194-4.3,13.2-7.922,18.228-12.926,10.2-10.156,24.783-16.772,32.513-28.928,3.355-5.275,8.494-9.742,12.46-14.776,2.759-3.5,1.74-7.13-2.93-9.112-11.633-4.938-23.271-9.966-35.349-14.05-14.088-4.764-28.5-8.98-43.05-12.645a305.462,305.462,0,0,0-32.122-5.811,153.876,153.876,0,0,0-43.234-.064c-19.846,2.844-39.085,7.362-56.946,15.368-4.309,1.932-8.637,3.837-13.343,5.926-1.794-7.021,2.169-11.613,8.046-15.344,13.214-8.388,27.722-14.9,42.6-21.049,8.734-3.608,18.036-4.979,27.083-7.341,9.891-2.582,19.81-5.13,29.841-7.293a196.877,196.877,0,0,1,41.614-3.943c5,0,10.009.127,15.013.336M354.816,307.621h-6.888l-.953-1.267,5.371-3.343,2.47,4.609m88.406-4.989c-2.085,2.341-3.457,3.881-4.83,5.42l-3.463-1.888q.943-3.174,1.884-6.347l6.409,2.815m9.959,3.441a54.246,54.246,0,0,1,3.575,6.363l-8.311.42a47.828,47.828,0,0,1,1.628-6.521c.092-.238,1.314-.429,2.2-.429.453,0,.819.049.906.167m11.789,4.83c1.5.4,3.626,2.141,3.5,3.145-.183,1.428-2.165,2.7-3.379,4.032l-4.813-3.933c2.1-1.52,3.675-3.262,4.549-3.261a.591.591,0,0,1,.145.018M275.25,265.352c2.829.819,5.731,1.462,7.15,1.82-13.219,5.733-27.173,11.7-41.032,17.816-15.189,6.7-30.432,13.338-45.368,20.417-6.581,3.118-12.248,7.553-18.735,10.835a54.463,54.463,0,0,1-14.8,5.344c-16.469,2.9-32.893,2.011-49.3-1.235-24.714-4.89-46.825-14.31-68.245-25.374-9.055-4.677-19.233-7.846-28.9-11.7-1.78-.71-3.554-1.434-5.1-2.056a67.6,67.6,0,0,1,35.857-21.557,167.746,167.746,0,0,1,31.85-4.231c19.946-.8,39.924-1.447,59.268-5.677,11.368-2.486,22.164-6.762,33.3-10.027a8.038,8.038,0,0,1,5.434.484,149.658,149.658,0,0,0,44.322,17.6c9.9,2.291,19.617,3.691,29.591,2.993q1.294-.091,2.553-.089c7.934,0,14.9,2.541,22.147,4.637m204.3,58.172q-.212.747-.423,1.5l-6.591,2.275,2.033-5.981,4.981,2.21m.6,14.06c-.021.882-1.836,2.166-3.116,2.443-.847.183-2.151-1.1-4.253-2.29l4.856-3.359c.911,1.07,2.536,2.151,2.512,3.205m143-68.489c14.364,9.639,26.55,20.97,38.109,32.848,9.62,9.886,19.425,19.648,29.081,29.51,2.511,2.565,4.777,5.3,7.991,8.883-25.881-4.8-49.269-11.482-69.974-24-20.566-12.437-34.375-29.826-50.514-46.059,7.406-1.441,15.054-1.6,20.937-4.371a22.41,22.41,0,0,1,9.615-2.367c5.3,0,9.913,2.31,14.755,5.559M358.452,340.1c1.236.126,2.25,1.76,3.359,2.737-1.253.911-2.373,2.265-3.81,2.563-.83.172-2.169-1.358-3.981-2.606,1.893-1.226,3.223-2.7,4.313-2.7.039,0,.079,0,.118.006m114.931,6.764c-.087,1.164-1.952,2.9-3.341,3.127-1.172.193-2.772-1.41-5.351-2.887,2.629-1.676,4.047-3.139,5.742-3.413a.444.444,0,0,1,.068-.005c.843,0,2.961,2.135,2.882,3.179m-85.033-.115c1.719.669,3,2.121,4.458,3.254-.926.758-2.1,2.276-2.73,2.133-1.956-.445-3.707-1.52-7.087-3.055,2.658-1.21,4.26-2.375,5.108-2.375a.682.682,0,0,1,.251.043M575.985,274.9c8.344,8.005,15.789,16.7,24.572,24.34,18.887,16.427,39.658,30.71,66.718,37.15,8.534,2.031,16.864,4.7,25.179,7.311,5.966,1.876,7.711,3.8,8.393,8.636-2.86.124-5.8.761-8.449.283-17.616-3.171-35.14-6.692-52.756-9.866-9.454-1.7-19.043-2.878-28.544-4.41a135.058,135.058,0,0,1-35.934-11.554c-24.983-11.7-43.844-28.937-61.366-47.31-3.9-4.084-6.493-9.02-9.787-13.513-2.022-2.758-4.233-5.419-6.969-8.9,7.865,2.856,14.763,5.727,21.965,7.9,14.341,4.322,29.177,7.049,44.486,5.765q.948-.079,1.829-.079a14.525,14.525,0,0,1,10.664,4.246m-145.46,78.435c-5.778-3.7-6.194-5.9-2.99-13.9,1.275-3.181,1.954-6.529,2.9-9.8l-1.892-.539c-1.176,2.614-2.52,5.186-3.483,7.853-1.048,2.9-1.1,6.177-2.783,8.75-1.507,2.31-4.628,3.889-6.734,5.551-10.177-6.119-1.776-12.281-1.428-18.261.1-1.779.568-3.544.186-5.413-5.978,6.932-4.147,17.521-15.479,21.229-9.279-4.9-3.3-10.962-2.05-16.688.575-2.632,1.165-5.262,1.748-7.892l-1.97-.459-7.091,18.548-8.006,3.946c-8.231-5.155-1.941-10.876-.305-16.511a32.722,32.722,0,0,0,1.485-7.363c-6.6,6.14-6.044,15.545-14.236,21.324-8.464-8.73.921-16.426.925-24.315l-1.645-.452-8.846,17.707c-5.539-9.31,2.5-16.613,3.605-24.557l-1.663-.6-9.63,17.045-5.7-9c2.153-3.8,3.854-8.308,10.947-8.914,1.545-.132,2.774-2.826,4.505-4.734,3.955.934,8.015.812,11.165-3.078.389-.48,1.641-.39,2.982-.3s2.776.181,3.522-.3c6.278-4.07,14.665-.084,20.754-4.154,5.7,3.054,11.821,2.181,18.049,1.652,1.941-.165,4.015,1.665,6.157,1.989s4.453-.093,7.068-.2c.689,1.831.814,5.406,3.02,7.086,2.1,1.6,6.369,1.214,10.334,1.8.987,1.274,2.157,4.4,4.641,5.538,2.463,1.127,6.249.247,9.754.247,2.294,5.056,2.707,5.31,9.131,5.565l5.46,9.666-5.522,9.5-1.521-.561q-.221-3.681-.443-7.362l-2.093-.107c-.433,4.79-.867,9.578-1.315,14.526-5.338.065-6.923-1.461-5.274-5.612.91-2.289.6-4.917.836-7.392l-1.757-.3q-3.343,8.93-6.7,17.9c-6.371-2.2-8.335-4.826-5.389-9.721,1.543-2.563,1.289-5.878,1.181-9.081-5.235,6.591-4.82,15.841-14.412,20.154M406.3,350.1c6.071.876,2.353,3.861,2.581,5.737l-8.517-1.476c.388-2.477,1.052-4.389,4.323-4.389a11.341,11.341,0,0,1,1.613.128m53.388,2.072c1.456,3.839-2.361,4.7-5.757,6.061-1.971-3.15-2.793-5.859,1-7.454a2.013,2.013,0,0,1,.753-.117c1.419,0,3.733.806,4,1.51m-18.612.67c1.38.236,2.191,2.77,3.262,4.256l-9.514,2.062c-.369-4.792,1.691-6.466,4.624-6.466a9.7,9.7,0,0,1,1.628.149m-19.346.193c1.947.342,3.449,2.449,5.153,3.755L420.3,362.16c-1.669-2.1-3.464-3.354-3.241-4.272.466-1.927.432-4.958,3.581-4.958a6.314,6.314,0,0,1,1.094.1m-149.638-66.4c-19.1,13.718-34.444,29.772-45.923,48.652-11.172,18.376-23.768,36.27-42,50.543-12.193,9.546-25.84,17.584-42.757,20.854-6.186,1.2-11.987,3.722-18.133,5.126-8.943,2.043-18.013,3.717-27.076,5.371-11.194,2.042-21.188,6.231-30.669,11.423a16.572,16.572,0,0,1-1.825.737l-1.41-1.013c3.92-5.92,7.225-12.2,11.893-17.681,8.2-9.617,16.533-19.269,26.067-27.949,14.912-13.575,30.813-26.4,46.4-39.455a291.046,291.046,0,0,1,58.8-38.7c13.448-6.6,27.593-12.207,41.44-18.234,10.147-4.416,20.145-9.107,30.544-13.064a83.674,83.674,0,0,1,20.118-4.424c-8.5,5.931-17.079,11.78-25.475,17.81m357.2,67.466c11.743,10.986,19.728,23.832,25.939,37.5,4.559,10.033,9.537,19.954,13.5,30.149,3.744,9.63,6.117,19.626,9.635,29.325,2.876,7.926,6.677,15.616,9.81,23.48,1.194,2.995,1.671,6.187,2.837,10.692-4.255-3.061-7.064-5.465-10.307-7.348-14.735-8.552-26.818-19.259-35.652-32.165a76.011,76.011,0,0,1-13.234-43.363c-.069-15.8-5.79-30.144-14.6-43.737-4.142-6.394-9.591-12.2-14.834-18.754,11.9,1.466,19.727,7.506,26.9,14.219M528.712,300.032c14.149,12.392,29.668,23.673,48.362,31.25,22.863,9.266,35.382,25.257,44.189,44.36,5.142,11.152,5.146,22.6,6.234,34.071,1.664,17.547,9.08,33.141,21.76,47.232a116.145,116.145,0,0,0,27.865,22.86,24.424,24.424,0,0,1,7.329,6.958,13.406,13.406,0,0,1-3.17-.412c-12.888-5.093-25.509-10.716-38.674-15.245-11.252-3.87-23.065-6.641-34.722-9.652-16.85-4.351-34.189-7.616-50.558-12.962-14.408-4.706-28.161-11.183-38.8-21.088-10.224-9.519-18.56-20.017-23.728-32.179-2.189-5.152-5.495-9.985-7.524-15.173-2.877-7.362-5.061-14.914-7.5-22.394-.67-2.054-1.258-4.129-1.794-6.211-.835-3.236-1.463-6.113,3.864-7.542,4.483-1.2,3.529-4.888,3.24-7.87q-1.575-16.191-3.349-32.369c-.3-2.791-.817-5.566-1.236-8.348l-1.75-.066a17.975,17.975,0,0,0-.961,4.216c.054,4.264.349,8.527.578,12.788.148,2.742-.537,4.9-3.815,4.88-1.5-3.145-3.174-5.944-4.15-8.9a41.82,41.82,0,0,1-1.707-8.941c-.613-6.1-.974-12.223-1.44-18.336l-2.669.057c0,2.774.007,5.548,0,8.322-.016,5.026.044,10.053-.13,15.076-.036,1.038-.959,2.054-1.472,3.08-1.321-.551-3.521-.879-3.816-1.689a62.986,62.986,0,0,1-3.594-12.657c-.63-4.535-.156-9.17-.356-13.756a32.145,32.145,0,0,0-1.061-5.172l-1.437-.105a19.3,19.3,0,0,0-1.08,4.4c-.057,6.547.28,13.1.015,19.639-.071,1.741-1.772,3.436-3.12,5.865-11.13-10.627-5.566-22.68-10.334-33.357-.317,3.1-.875,6.189-.887,9.285a69.425,69.425,0,0,0,.777,10.506c.584,3.92-1.132,6.232-5.6,6.92-7.118-9.592-2.56-20.332-3.562-30.529l-1.638,0c-.857,5.328-2.007,10.64-2.475,15.993-.359,4.112.261,8.331-6.813,9.3l-7.587-5.922,7.313-29.446c-8.487,10.576-6.393,24.335-15.745,34.568-9.386-3.89-9.284-3.943-6.928-11.776a60.112,60.112,0,0,0,2.574-14.907c-6.162,8.894-3.889,21.047-16.274,27.587-4.956-1.243-3.133-4.545-2.377-7.583,1.285-5.172,2.53-10.352,3.791-15.529l-1.792-.447c-1.526,4.081-3.2,8.128-4.531,12.253-1.035,3.214-1.138,6.7-2.628,9.727-.829,1.687-3.647,2.7-5.569,4.012-.385-1.416-1.291-2.894-1.055-4.234.709-4.034,1.908-8.006,2.812-12.019a4.742,4.742,0,0,0-.546-3.174c-6.162,7.486-3.855,18.512-15.218,24.34-1.288-6.381,2.61-11.886,3.735-17.674l-1.432-.493c-4.586,8.671-9.172,17.341-13.962,26.394l-5.5,1.135c1.933-6.148,3.742-11.909,5.542-17.635l-1.087-.443c-1.926,6.357-11.132,7.014-14.212,12.931-1.9,3.648-7.276,5.924-10.055,9.392-7.11,8.871-14.244,17.8-20.222,27.206-5.428,8.542-9,17.888-14.044,26.618a102.463,102.463,0,0,1-12.238,17.231c-12.243,13.657-27.6,24.517-45.256,33.149a154.468,154.468,0,0,1-65.452,15.634c-19.875.41-39.756.554-59.631.961-4.191.086-8.361,1.138-12.545,1.154-6.942.028-13.887-.424-20.83-.673q-.348-1.178-.694-2.354c6.934-3.111,13.51-7.154,20.883-9.124,12.282-3.28,25.168-4.946,37.632-7.8,26.87-6.155,51.234-15.805,70.138-33.81,14.617-13.922,25.264-29.8,35.432-45.981q18.939-30.13,51.071-50.919c7.917-5.109,16.083-9.955,24.231-14.81a11.254,11.254,0,0,1,4.5-1.232c7.253-.678,14.536-1.136,21.786-1.831,14.667-1.405,27.446-6.744,39.712-13.241,7.133-3.779,14.676-7.025,21.758-10.866,10.616-5.758,20.891-11.852,28.961-20.257,3.066-3.193,7.439-5.515,11.28-8.28,3.925,2.813,7.59,5,10.6,7.69,6.129,5.483,11.8,11.32,17.9,16.826,1.374,1.24,5.088,2.714,5.425,2.394,2.747-2.6-.871-3.346-2.475-4.705a5.21,5.21,0,0,1-.811-1.2c9.511.361,10.607,2.023,10.993,16.507,2.947.023,2.947.023,4.751-7.631l11.023,11.836c-4.132,2.728-3.651,7.507,3.573,15.559,4.616,5.144,5.737,5.468,9.539,3.274,8.118,8.575,15.493,17.678,24.453,25.524M404.594,364.5c-1.859,5.186-3.67,12.156-6.841,18.666-5.913,12.141-12.241,24.167-19.1,35.957a125.188,125.188,0,0,1-27.5,33.005c-17.262,14.642-33.4,30.2-50.166,45.255-4.18,3.752-8.96,7.038-13.466,10.539l-1.3-.914c.208-3.579.647-7.16.58-10.736a95.668,95.668,0,0,0-4.825-27.467c-2.681-8.415-2.533-17.484-3.307-26.285-.518-5.882-.657-11.8-.63-17.7.039-8.484-.181-17.01.762-25.436A115.751,115.751,0,0,1,283.8,375.7c2.7-8.124,6-16.32,10.751-23.717,8.04-12.505,17.118-24.578,26.4-36.485,4.246-5.448,10.018-10.069,15.921-15.875-3.914,7.617-4.571,14.4-.819,21.432-5.13,5.5-3.088,8.863,7.046,10.258-.8,4.817.334,8.808,7.383,9.011,1.276,7.762,5.63,10.072,14.159,7.687.35,1.46.7,2.907,1.131,4.717l14.6.744c3.334,6.126,7.5,6.837,14.185,1.937l10.039,9.091m69.994-10.129c1.328,5.2,2.1,11.161,4.408,16.682,6.488,15.517,12.475,31.309,24.268,44.809,4.387,5.021,4.3,10.623,2.548,15.7-4.523,13.115-12.286,24.99-21.32,36.461-12.922,16.407-24.777,33.4-36.972,50.2-3.506,4.829-6.415,9.96-9.975,14.758-2.28,3.073-5.877,3.176-8.852.3-5.185-5.02-9.674-10.571-15.162-15.334-7.826-6.791-16.186-13.164-24.5-19.549C374.195,487,361.446,474.433,355.6,457.942a5.253,5.253,0,0,1,1.049-4.859,190.828,190.828,0,0,0,38.082-53.743c5.134-10.693,9.363-21.693,13.768-32.62,1.095-2.714,1.287-5.682,1.893-8.533l1.949.151c3.476,5.906,8.556,9.431,18.649,1.857,9.175,3.915,13.411,3.6,16.057-.177,4.388.207,8.048.736,11.619.463,4.936-.377,6.093-3.558,6.142-7.175l9.777,1.066M433.8,539.456c3.328,0,6.508-1.69,9.04-5.069,2.978-3.975,5.926-8.112,7.777-12.5,6.592-15.629,17.824-29.15,28.831-42.545,13.461-16.379,26.822-32.518,32.181-52.786,5.431,4.219,10.206,8.822,15.982,12.254,21.263,12.639,45.638,19.112,70.693,24.394a437.42,437.42,0,0,1,43.733,11.472c14.893,4.8,29.13,10.994,43.741,16.415,4.924,1.828,9.785-1.147,9.755-5.785a14.669,14.669,0,0,0-1.038-5.374c-3.918-9.614-8.35-19.092-11.925-28.79-5.4-14.638-9.631-29.587-15.45-44.1-8.136-20.292-18.017-39.982-35.353-56.337-2.214-2.089-4.5-4.124-7.556-6.916,2.369.3,3.56.373,4.709.6,8.334,1.638,16.636,3.39,24.993,4.939,8.009,1.485,16.111,2.629,24.1,4.176,8.155,1.578,16.011,3.97,24.757,2.428,6.464-1.14,7.081-1.588,5.377-6.955-2.43-7.654-8.683-13.228-14.29-19.143-5.687-6-11.718-11.777-18.168-18.22,2.363-.418,3.4-.665,4.462-.778,14.02-1.513,27.213-5.75,38.239-12.57,14.221-8.8,27.02-19.236,40.052-29.31,9.9-7.651,19.338-15.725,28.716-23.826,5.418-4.682,10.974-9.422,15.248-14.808,4.356-5.491,3.63-12.049-.192-15.088-10.21-8.118-20.234-16.416-30.8-24.2-18.375-13.542-37.106-26.749-55.678-40.1-16.5-11.866-36.948-16.668-57.076-21.916-5.968-1.555-12.386-1.911-18.876-2.858,2.253-6.023,4.555-11.738,6.52-17.533,2.658-7.839,5.618-15.652,7.442-23.635,2.9-12.713,5.488-25.509,7.26-38.361,1.757-12.759,4.569-25.633-2.428-38.212-3.5-6.287-6.31-8.978-14.958-8.311a191.846,191.846,0,0,0-27.345,3.912c-14.046,3.17-27.8,7.223-41.7,10.846-7.462,1.945-14.859,4.915-22.474,5.413-15.647,1.024-29.159,6.693-42.3,12.575-18.649,8.347-35.624,18.919-49.979,32.131-2.73,2.512-5.829,4.744-9.563,7.756-.236-2.409-32.242,23.632-33.442,22.829-5.921-3.96-11.214-9.191-17.951-11.556a292.3,292.3,0,0,0-42.336-11.628c-7.072-1.337-14.54-1.254-21.993-1.17-2.893.033-5.783.065-8.646.015-2.155-.038-4.316.067-6.476.172-2.406.117-4.81.233-7.206.153-8.769-.294-17.525-1.3-26.282-1.264-14.913.058-27.188-7.054-41.035-9.8-.319-.063-.559-.384-.847-.573-6.278-4.128-12.585-8.226-18.827-12.391-3-2-5.564-1.852-8.853-.038-5.192,2.863-6.128,7.47-7.612,11.7-3.936,11.242-7.236,22.637-11.014,33.918-2.393,7.146-5.349,14.164-4.9,21.753.15,2.521.024,5.054.024,7.96-5.884-1-11.177-2.41-16.562-2.724-26.335-1.534-52.14.432-76.895,8.812-3.323,1.125-7.085,1.332-10.621,2.04-9.83,1.966-20.365,1.663-29.118,7.128-2.819,1.761-3.795,3.263-3.375,5.965.985,6.347,6.693,9.906,11.592,13.934,10.091,8.3,20.678,16.208,30.251,24.9,8.67,7.871,13.332,18.606,25.663,24.673-1.777.824-2.945,1.448-4.191,1.934-14.943,5.821-30.225,11.108-44.756,17.57s-28.286,14.142-42.441,21.2c-12.743,6.357-22.266,15.431-30.395,25.5A7.636,7.636,0,0,0,0,278.3v.106c.034,2.748,2.675,4.871,7.426,6.365,7.809,2.455,15.792,4.688,23.2,7.839,15.686,6.676,30.9,14.118,46.573,20.818,21.107,9.024,43.938,12.689,67.432,13.462,6.017.2,12.105-1.123,18.916-1.823a24.723,24.723,0,0,1-2.482,2.414C136.3,344.886,114.046,364.4,92.54,384.5c-6.035,5.642-10.783,12.227-16.565,18.073-7.243,7.324-13.068,15.244-16.719,24.237-1.6,3.947.78,10.1,4.357,10.363,8.528.631,17.107.942,25.671,1.047,5.474.067,10.954-.64,16.436-.693,5.43-.053,10.865-.027,16.3,0,9.951.049,19.9.1,29.818-.343,12.919-.575,26-1.543,38.568-3.947,17.637-3.373,33.7-10.234,48.582-18.943,14.3-8.365,26.461-18.518,38.178-31.161-.234,2.7-.3,4.1-.484,5.48-.941,7.255-2.517,14.5-2.724,21.765a251.142,251.142,0,0,0,.907,29.745,282.34,282.34,0,0,0,4.517,31.214c2.467,12.043,6.178,23.933,2.177,36.217a7.878,7.878,0,0,0-.036,2.513c7.625,4.518,12.474-.8,16.249-3.93,12.586-10.441,24.208-21.686,36.28-32.56,5.554-5,11.3-9.862,17.3-15.087.542,2.068.619,3.5,1.278,4.7a108.648,108.648,0,0,0,25.92,31.642c13.46,11.245,26.717,22.66,39.974,34.073,2.393,2.06,4.224,4.569,6.546,6.7a13.065,13.065,0,0,0,8.721,3.851Z" transform="translate(0 0)" fill="#f3f6f4"/>
    </clipPath>
    <clipPath id="clip-path-2">
      <path id="Path_34" data-name="Path 34" d="M11.487,17.818C-1.011,15.532,4.879,6.636,3.11,0,2.338.59,1.641.895,1.34,1.389-1.605,6.215.585,15.979,5.174,19.609a4.952,4.952,0,0,0,2.893,1.327c1.236,0,2.316-.957,3.42-3.118" transform="translate(0 0)" fill="#f3f6f4"/>
    </clipPath>
    <clipPath id="clip-path-3">
      <path id="Path_35" data-name="Path 35" d="M17.878,14.784c-4.263-1.349-9.123-1.745-11.9-4.08C3.1,8.287,2.25,3.988.256,0-1.139,9.074,3.2,15.181,12.189,17.107a10.054,10.054,0,0,0,2.079.245c1.783,0,3.207-.673,3.61-2.568" transform="translate(0 0)" fill="#f3f6f4"/>
    </clipPath>
    <clipPath id="clip-path-4">
      <path id="Path_36" data-name="Path 36" d="M10.8,22.214c.56-2.263,1.824-5.051.871-6.822C8.8,10.054,5.013,5.1,1.583,0L0,.711C3.27,7.869,11.931,13.548,7.648,23.657c1.593-.7,3.027-.943,3.151-1.444" transform="translate(0 0)" fill="#f3f6f4"/>
    </clipPath>
    <clipPath id="clip-path-5">
      <path id="Path_37" data-name="Path 37" d="M2.287,14.708a15.584,15.584,0,0,0,5.921-1.442C13.8,10.2,17.7,5.946,18.845,0,12.821,4.3,10.8,13.015,0,12.856c.748.64,1.562,1.854,2.238,1.854l.049,0" transform="translate(0)" fill="#f3f6f4"/>
    </clipPath>
    <clipPath id="clip-path-6">
      <path id="Path_38" data-name="Path 38" d="M9.279,17.826c-.36-.87-.463-2.278-1.12-2.522C3.629,13.62,3.152,10.263,3.039,6.6c-.068-2.2-.385-4.4-.59-6.6L1.237.13a20.633,20.633,0,0,0-1.1,3.828C-.356,9.233.318,14.281,5.387,17.845a1.879,1.879,0,0,0,1.077.25c.857,0,1.936-.246,2.814-.269" transform="translate(0 0)" fill="#f3f6f4"/>
    </clipPath>
    <clipPath id="clip-path-7">
      <path id="Path_39" data-name="Path 39" d="M6.025,18.1C6.917,11.524,5.076,5.5,1.184,0L0,.354C.347,1.9.806,3.428,1.019,4.986c.574,4.2,1.014,8.423,1.578,12.628a15.231,15.231,0,0,0,.828,2.6c.9-.7,2.493-1.326,2.6-2.11" transform="translate(0 0)" fill="#f3f6f4"/>
    </clipPath>
    <clipPath id="clip-path-8">
      <path id="Path_40" data-name="Path 40" d="M6.653,14.317C1.668,12.495,3.924,8.782,4.076,5.9,4.164,4.236,5.822,2.638,7.365,0,.274,3.054-2.089,11.2,2.007,15.456c.82.853,2.545,1.026,3.853,1.512a17,17,0,0,0,.793-2.651" transform="translate(0 0)" fill="#f3f6f4"/>
    </clipPath>
    <clipPath id="clip-path-9">
      <path id="Path_41" data-name="Path 41" d="M3.647,14.959c1.263-2.9,2.2-5.932,3.679-8.737,1.065-2.013,2.809-3.745,4.251-5.6L10.769,0A15.721,15.721,0,0,0,8.144,1.627C4.1,5.412-.156,9.166,0,14.909c.024.843,1.317,1.657,2.023,2.485a16.339,16.339,0,0,0,1.619-2.436" transform="translate(0 0)" fill="#f3f6f4"/>
    </clipPath>
    <clipPath id="clip-path-10">
      <path id="Path_42" data-name="Path 42" d="M10.976,14.2C6.024,10.812,1.341,7.258,4.076,0-.769,3.134-1.085,6.767,2.021,10.833c2.5,3.272,3.851,4.651,5.5,4.651A7.447,7.447,0,0,0,10.976,14.2" transform="translate(0 0)" fill="#f3f6f4"/>
    </clipPath>
    <clipPath id="clip-path-11">
      <path id="Path_43" data-name="Path 43" d="M7.954,16.34A9.719,9.719,0,0,0,7.3,13.61c-1.507-2.643-3.439-5.118-4.7-7.84C1.777,4.012,1.843,1.934,1.514,0-1.906,4.647.927,14.615,5.44,16.6a1.251,1.251,0,0,0,.506.091,19.413,19.413,0,0,0,2.007-.353" transform="translate(0 0)" fill="#f3f6f4"/>
    </clipPath>
    <clipPath id="clip-path-12">
      <path id="Path_44" data-name="Path 44" d="M4.126,12.434C7.718,8.414,11.056,4.216,14.556,0,6.429,1.682,2.837,7.436,0,14.075c1.553-.284,3.258-.669,4.126-1.64" transform="translate(0 0)" fill="#f3f6f4"/>
    </clipPath>
    <clipPath id="clip-path-13">
      <path id="Path_45" data-name="Path 45" d="M0,0C1.415,6.885,2.7,13.113,3.973,19.327,8.236,15.36,6.666,6.615,0,0" transform="translate(0)" fill="#f3f6f4"/>
    </clipPath>
    <clipPath id="clip-path-14">
      <path id="Path_46" data-name="Path 46" d="M18.278,0a9.535,9.535,0,0,0-2.238.793C11.859,4.376,7.532,7.655,1.213,7.684.806,7.686.4,8.58,0,9.06c.78.436,1.532,1.2,2.343,1.255.16.011.322.015.487.015,5.2,0,13.133-5.037,15.448-10.329" transform="translate(0)" fill="#f3f6f4"/>
    </clipPath>
    <clipPath id="clip-path-15">
      <path id="Path_47" data-name="Path 47" d="M10.946,0C5.694,1.013,7.5,5.169,5.686,7.251,3.572,9.681,1.877,12.4,0,14.988,8.34,13.11,9.14,6.893,10.946,0" transform="translate(0 0)" fill="#f3f6f4"/>
    </clipPath>
    <clipPath id="clip-path-16">
      <path id="Path_48" data-name="Path 48" d="M13.682.913,12.7,0C8.975,2.836,5.023,5.475,1.614,8.581c-2.09,1.9-2.27,4.3.17,5.234l11.9-12.9" transform="translate(0 0)" fill="#f3f6f4"/>
    </clipPath>
    <clipPath id="clip-path-17">
      <path id="Path_49" data-name="Path 49" d="M8.9,7.569C8.011,3.438,4.64,1.275,0,0,5.684,4.273,7.455,9.363,5.152,15.638c4.515-1.724,4.42-4.914,3.745-8.068" fill="#f3f6f4"/>
    </clipPath>
    <clipPath id="clip-path-18">
      <path id="Path_50" data-name="Path 50" d="M18,0,0,8.176a9.584,9.584,0,0,0,2.544.317C8.6,8.492,16.662,3.987,18,0" transform="translate(0)" fill="#f3f6f4"/>
    </clipPath>
    <clipPath id="clip-path-19">
      <path id="Path_51" data-name="Path 51" d="M3.055,10.294C8.46,8.331,12.994,5.363,15.966.807L15.173,0C14.051.772,12.988,1.626,11.8,2.3,8.536,4.141,5.189,5.86,1.953,7.732A9.979,9.979,0,0,0,0,9.731a15.909,15.909,0,0,0,2.59.637,1.358,1.358,0,0,0,.465-.074" transform="translate(0)" fill="#f3f6f4"/>
    </clipPath>
    <clipPath id="clip-path-20">
      <path id="Path_52" data-name="Path 52" d="M4.681,8.678C8.221,5.917,12.012,3.11,12.268,0l-9.6,9.275a3.867,3.867,0,0,0,2.008-.6m-2.008.6C1.8,9.354.833,9.346,0,9.468l1.779.669.893-.863" transform="translate(0)" fill="#f3f6f4"/>
    </clipPath>
    <clipPath id="clip-path-21">
      <path id="Path_53" data-name="Path 53" d="M4.486,10.133A87.933,87.933,0,0,0,3.468.1L1.848,0Q.924,6.054,0,12.107l1.63.8c1-.923,2.857-1.847,2.856-2.769" transform="translate(0 0)" fill="#f3f6f4"/>
    </clipPath>
  </defs>
  <g id="Group_35" data-name="Group 35">
    <g id="Group_34" data-name="Group 34" clip-path="url(#clip-path)">
      <rect id="Rectangle_50" data-name="Rectangle 50" width="806.759" height="781.721" transform="translate(0 -242.265)" fill="#f3f6f4"/>
    </g>
  </g>
  <g id="Group_37" data-name="Group 37" transform="translate(489.717 312.526)">
    <g id="Group_36" data-name="Group 36" transform="translate(0 0)" clip-path="url(#clip-path-2)">
      <rect id="Rectangle_51" data-name="Rectangle 51" width="13.092" height="20.936" transform="translate(-1.605 0)" fill="#f3f6f4"/>
    </g>
  </g>
  <g id="Group_39" data-name="Group 39" transform="translate(495.386 277.819)">
    <g id="Group_38" data-name="Group 38" transform="translate(0 0)" clip-path="url(#clip-path-3)">
      <rect id="Rectangle_52" data-name="Rectangle 52" width="19.017" height="17.353" transform="translate(-1.139 0)" fill="#f3f6f4"/>
    </g>
  </g>
  <g id="Group_41" data-name="Group 41" transform="translate(490.314 294.517)">
    <g id="Group_40" data-name="Group 40" transform="translate(0 0)" clip-path="url(#clip-path-4)">
      <rect id="Rectangle_53" data-name="Rectangle 53" width="12.623" height="23.657" transform="translate(0 0)" fill="#f3f6f4"/>
    </g>
  </g>
  <g id="Group_43" data-name="Group 43" transform="translate(320.059 284.02)">
    <g id="Group_42" data-name="Group 42" transform="translate(0 0)" clip-path="url(#clip-path-5)">
      <rect id="Rectangle_54" data-name="Rectangle 54" width="18.845" height="14.71" transform="translate(0 0)" fill="#f3f6f4"/>
    </g>
  </g>
  <g id="Group_45" data-name="Group 45" transform="translate(472.244 268.504)">
    <g id="Group_44" data-name="Group 44" transform="translate(0 0)" clip-path="url(#clip-path-6)">
      <rect id="Rectangle_55" data-name="Rectangle 55" width="9.635" height="18.095" transform="translate(-0.356 0)" fill="#f3f6f4"/>
    </g>
  </g>
  <g id="Group_47" data-name="Group 47" transform="translate(442.051 253.659)">
    <g id="Group_46" data-name="Group 46" transform="translate(0 0)" clip-path="url(#clip-path-7)">
      <rect id="Rectangle_56" data-name="Rectangle 56" width="6.916" height="20.208" transform="translate(0 0)" fill="#f3f6f4"/>
    </g>
  </g>
  <g id="Group_49" data-name="Group 49" transform="translate(425.19 243.166)">
    <g id="Group_48" data-name="Group 48" transform="translate(0 0)" clip-path="url(#clip-path-8)">
      <rect id="Rectangle_57" data-name="Rectangle 57" width="9.454" height="16.968" transform="translate(-2.089 0)" fill="#f3f6f4"/>
    </g>
  </g>
  <g id="Group_51" data-name="Group 51" transform="translate(403.926 247.932)">
    <g id="Group_50" data-name="Group 50" transform="translate(0 0)" clip-path="url(#clip-path-9)">
      <rect id="Rectangle_58" data-name="Rectangle 58" width="11.733" height="17.394" transform="translate(-0.156 0)" fill="#f3f6f4"/>
    </g>
  </g>
  <g id="Group_53" data-name="Group 53" transform="translate(437.019 223.043)">
    <g id="Group_52" data-name="Group 52" transform="translate(0 0)" clip-path="url(#clip-path-10)">
      <rect id="Rectangle_59" data-name="Rectangle 59" width="12.061" height="15.484" transform="translate(-1.085 0)" fill="#f3f6f4"/>
    </g>
  </g>
  <g id="Group_55" data-name="Group 55" transform="translate(457.293 258.208)">
    <g id="Group_54" data-name="Group 54" transform="translate(0 0)" clip-path="url(#clip-path-11)">
      <rect id="Rectangle_60" data-name="Rectangle 60" width="9.859" height="16.693" transform="translate(-1.905 0)" fill="#f3f6f4"/>
    </g>
  </g>
  <g id="Group_57" data-name="Group 57" transform="translate(325.157 272.153)">
    <g id="Group_56" data-name="Group 56" transform="translate(0 0)" clip-path="url(#clip-path-12)">
      <rect id="Rectangle_61" data-name="Rectangle 61" width="14.556" height="14.075" transform="translate(0 0)" fill="#f3f6f4"/>
    </g>
  </g>
  <g id="Group_59" data-name="Group 59" transform="translate(481.255 256.933)">
    <g id="Group_58" data-name="Group 58" transform="translate(0 0)" clip-path="url(#clip-path-13)">
      <rect id="Rectangle_62" data-name="Rectangle 62" width="8.236" height="19.327" transform="translate(0 0)" fill="#f3f6f4"/>
    </g>
  </g>
  <g id="Group_61" data-name="Group 61" transform="translate(307.202 270.307)">
    <g id="Group_60" data-name="Group 60" transform="translate(0 0)" clip-path="url(#clip-path-14)">
      <rect id="Rectangle_63" data-name="Rectangle 63" width="18.278" height="10.329" transform="translate(0 0)" fill="#f3f6f4"/>
    </g>
  </g>
  <g id="Group_63" data-name="Group 63" transform="translate(414.889 226.476)">
    <g id="Group_62" data-name="Group 62" transform="translate(0 0)" clip-path="url(#clip-path-15)">
      <rect id="Rectangle_64" data-name="Rectangle 64" width="10.946" height="14.988" transform="translate(0 0)" fill="#f3f6f4"/>
    </g>
  </g>
  <g id="Group_65" data-name="Group 65" transform="translate(348.889 266.283)">
    <g id="Group_64" data-name="Group 64" transform="translate(0 0)" clip-path="url(#clip-path-16)">
      <rect id="Rectangle_65" data-name="Rectangle 65" width="14.338" height="13.815" transform="translate(-0.656 0)" fill="#f3f6f4"/>
    </g>
  </g>
  <g id="Group_67" data-name="Group 67" transform="translate(460.825 246.173)">
    <g id="Group_66" data-name="Group 66" transform="translate(0 0)" clip-path="url(#clip-path-17)">
      <rect id="Rectangle_66" data-name="Rectangle 66" width="9.667" height="15.637" transform="translate(0 0)" fill="#f3f6f4"/>
    </g>
  </g>
  <g id="Group_69" data-name="Group 69" transform="translate(366.812 251.02)">
    <g id="Group_68" data-name="Group 68" transform="translate(0 0)" clip-path="url(#clip-path-18)">
      <rect id="Rectangle_67" data-name="Rectangle 67" width="17.995" height="8.492" transform="translate(0 0)" fill="#f3f6f4"/>
    </g>
  </g>
  <g id="Group_71" data-name="Group 71" transform="translate(371.295 258.727)">
    <g id="Group_70" data-name="Group 70" transform="translate(0 0)" clip-path="url(#clip-path-19)">
      <rect id="Rectangle_68" data-name="Rectangle 68" width="15.966" height="10.368" transform="translate(0 0)" fill="#f3f6f4"/>
    </g>
  </g>
  <g id="Group_73" data-name="Group 73" transform="translate(395.528 242.416)">
    <g id="Group_72" data-name="Group 72" transform="translate(0 0)" clip-path="url(#clip-path-20)">
      <rect id="Rectangle_69" data-name="Rectangle 69" width="12.268" height="10.138" transform="translate(0 0)" fill="#f3f6f4"/>
    </g>
  </g>
  <g id="Group_75" data-name="Group 75" transform="translate(448.976 240.6)">
    <g id="Group_74" data-name="Group 74" transform="translate(0 0)" clip-path="url(#clip-path-21)">
      <rect id="Rectangle_70" data-name="Rectangle 70" width="4.487" height="12.902" transform="translate(0 0)" fill="#f3f6f4"/>
    </g>
  </g>
</svg>
