<svg xmlns="http://www.w3.org/2000/svg" width="106.69" height="62.278" viewBox="0 0 106.69 62.278">
  <g id="Logo" transform="translate(-66.364 -62.336)">
    <path id="Path_107" data-name="Path 107" d="M18.854-15.444V0H15.092V-9.262L11.638,0H8.6L5.126-9.284V0H1.364V-15.444H5.808L10.142-4.752l4.29-10.692ZM31.174-2.728H25.41L24.486,0H20.548l5.588-15.444h4.356L36.08,0H32.1Zm-.968-2.9-1.914-5.654L26.4-5.632ZM43.362.154A7.944,7.944,0,0,1,40.326-.4a4.949,4.949,0,0,1-2.145-1.628,4.448,4.448,0,0,1-.847-2.6h4a1.943,1.943,0,0,0,.594,1.309,1.909,1.909,0,0,0,1.32.451,2.064,2.064,0,0,0,1.32-.385,1.288,1.288,0,0,0,.484-1.067,1.263,1.263,0,0,0-.385-.946,3.106,3.106,0,0,0-.946-.616,15.216,15.216,0,0,0-1.595-.55,17.367,17.367,0,0,1-2.442-.924A4.512,4.512,0,0,1,38.06-8.712a3.8,3.8,0,0,1-.682-2.354,4.048,4.048,0,0,1,1.562-3.377,6.418,6.418,0,0,1,4.07-1.221,6.493,6.493,0,0,1,4.114,1.221,4.371,4.371,0,0,1,1.672,3.4h-4.07a1.592,1.592,0,0,0-.55-1.177,1.938,1.938,0,0,0-1.3-.429,1.618,1.618,0,0,0-1.1.363,1.309,1.309,0,0,0-.418,1.045,1.3,1.3,0,0,0,.7,1.166,11.54,11.54,0,0,0,2.2.9,20.346,20.346,0,0,1,2.431.968,4.628,4.628,0,0,1,1.617,1.342A3.592,3.592,0,0,1,48.994-4.6a4.447,4.447,0,0,1-.671,2.4A4.7,4.7,0,0,1,46.376-.484,6.665,6.665,0,0,1,43.362.154Zm13.53,0A7.944,7.944,0,0,1,53.856-.4a4.949,4.949,0,0,1-2.145-1.628,4.448,4.448,0,0,1-.847-2.6h4a1.943,1.943,0,0,0,.594,1.309,1.909,1.909,0,0,0,1.32.451,2.064,2.064,0,0,0,1.32-.385,1.288,1.288,0,0,0,.484-1.067,1.263,1.263,0,0,0-.385-.946,3.106,3.106,0,0,0-.946-.616,15.216,15.216,0,0,0-1.595-.55,17.367,17.367,0,0,1-2.442-.924A4.512,4.512,0,0,1,51.59-8.712a3.8,3.8,0,0,1-.682-2.354,4.048,4.048,0,0,1,1.562-3.377,6.418,6.418,0,0,1,4.07-1.221,6.493,6.493,0,0,1,4.114,1.221,4.371,4.371,0,0,1,1.672,3.4h-4.07a1.592,1.592,0,0,0-.55-1.177,1.938,1.938,0,0,0-1.3-.429,1.618,1.618,0,0,0-1.1.363,1.309,1.309,0,0,0-.418,1.045,1.3,1.3,0,0,0,.7,1.166,11.54,11.54,0,0,0,2.2.9,20.346,20.346,0,0,1,2.431.968,4.628,4.628,0,0,1,1.617,1.342A3.592,3.592,0,0,1,62.524-4.6a4.447,4.447,0,0,1-.671,2.4A4.7,4.7,0,0,1,59.906-.484,6.665,6.665,0,0,1,56.892.154ZM74.448-2.728H68.684L67.76,0H63.822L69.41-15.444h4.356L79.354,0H75.372Zm-.968-2.9-1.914-5.654L69.674-5.632ZM91.3-10.56a2.814,2.814,0,0,0-1.2-1.177,3.923,3.923,0,0,0-1.837-.407,3.78,3.78,0,0,0-2.926,1.2,4.55,4.55,0,0,0-1.1,3.2,4.606,4.606,0,0,0,1.155,3.333,4.207,4.207,0,0,0,3.179,1.2,3.845,3.845,0,0,0,2.343-.7,3.99,3.99,0,0,0,1.4-2.024H87.538V-8.712h8.184v3.5A7.379,7.379,0,0,1,94.3-2.6,7.487,7.487,0,0,1,91.762-.638,7.854,7.854,0,0,1,88.286.11a8.228,8.228,0,0,1-4.081-1,7.13,7.13,0,0,1-2.794-2.783,8.167,8.167,0,0,1-1-4.07,8.228,8.228,0,0,1,1-4.081,7.13,7.13,0,0,1,2.783-2.794,8.167,8.167,0,0,1,4.07-1,7.907,7.907,0,0,1,4.675,1.342,6.333,6.333,0,0,1,2.519,3.718Zm10.274-1.87v3.124h5.038v2.9h-5.038v3.388h5.7V0h-9.46V-15.444h9.46v3.014Z" transform="translate(65 78)" fill="#fff"/>
    <path id="Path_108" data-name="Path 108" d="M9.478-8.943A6.206,6.206,0,0,1,8.7-7.2q-.22.33-.417.33a1.575,1.575,0,0,1-.667-.315q-.146-.1-.146-.2,0-.154.256-.22.19-.059.432-.667a2.693,2.693,0,0,0,.227-.908q0-.344-.271-.344a1.28,1.28,0,0,0-.242.029,8.731,8.731,0,0,0-1.23.388.633.633,0,0,1-.2.037q-.22,0-.22-.146t.227-.249a13.733,13.733,0,0,1,1.619-.688,1.24,1.24,0,0,1,.366-.1q.168,0,.439.469a2.915,2.915,0,0,1,.505.183.317.317,0,0,1,.161.293A1.31,1.31,0,0,1,9.478-8.943ZM7.288-2.219A2.415,2.415,0,0,1,5.94-.088a1.139,1.139,0,0,1-1,.6A4.42,4.42,0,0,1,2.5-.461,5.448,5.448,0,0,1,.916-2.043,2.816,2.816,0,0,1,.5-2.937a.763.763,0,0,1,.33-.513.872.872,0,0,1,.483-.271q.168,0,.168.22a.951.951,0,0,1-.037.234A4.386,4.386,0,0,0,3.083-1.3a3.95,3.95,0,0,0,2.271.9q.9-.007.9-1.23A7.908,7.908,0,0,0,5.2-4.325,7.582,7.582,0,0,1,4.153-7.214a1.7,1.7,0,0,1,.322-1.018,4.677,4.677,0,0,1,.952-.886.409.409,0,0,1,.249-.1q.2,0,.2.168a.347.347,0,0,1-.132.242,1.728,1.728,0,0,0-.564,1.3A7.267,7.267,0,0,0,6.233-4.673,8.36,8.36,0,0,1,7.288-2.219Zm6.328-2.659a23.072,23.072,0,0,0-.93,3.135,3.876,3.876,0,0,0,.289-.315,3.02,3.02,0,0,1,.223-.249.285.285,0,0,1,.22-.132.1.1,0,0,1,.11.11.29.29,0,0,1-.059.154,5.939,5.939,0,0,0-.916,2.058q-.066.293-.2.293a1.107,1.107,0,0,1-.461-.234.562.562,0,0,1-.227-.22.675.675,0,0,1,0-.322,16.734,16.734,0,0,1,.769-3.091A17.477,17.477,0,0,1,10.7-1.406,10.185,10.185,0,0,1,9.316-.015.968.968,0,0,1,8.848.2a.81.81,0,0,1-.4-.212.721.721,0,0,1-.388-.645,1.309,1.309,0,0,1,.015-.183,7,7,0,0,1,.952-2.523,10.152,10.152,0,0,1,1.882-2.428.93.93,0,0,1,.615-.315q.264.015,1,.7a.168.168,0,0,1,.066.125q0,.117-.154.117a.276.276,0,0,1-.11-.022.81.81,0,0,0-.835.015A6.96,6.96,0,0,0,9.968-3.4,7.1,7.1,0,0,0,8.8-.762a.676.676,0,0,0-.007.1q0,.183.146.183a.942.942,0,0,0,.593-.344,19.464,19.464,0,0,0,1.758-2.007,10.161,10.161,0,0,0,1.23-1.89q.2-.469.256-.659.1-.33.205-.33a1.423,1.423,0,0,1,.513.3.4.4,0,0,1,.183.227A.723.723,0,0,1,13.616-4.878Zm6.592-6.489a.185.185,0,0,1,.088.146q0,.146-.176.146a.272.272,0,0,1-.139-.044,1.255,1.255,0,0,0-.505-.176q-.454,0-1.011.9a23.508,23.508,0,0,0-2.864,8.4q.762-1.289,1.135-1.824a10.571,10.571,0,0,1,1.582-1.838,1.128,1.128,0,0,1,.71-.359,1.181,1.181,0,0,1,.505.205.886.886,0,0,1,.593.93,9.073,9.073,0,0,1-.71,2.791,6.383,6.383,0,0,1-1.355,2.1.654.654,0,0,1-.454.212q-.476,0-1.318-1.084a.377.377,0,0,1-.1-.212q0-.11.125-.11a.365.365,0,0,1,.242.1,1.25,1.25,0,0,0,.74.366.764.764,0,0,0,.579-.352,6.525,6.525,0,0,0,.916-1.75,6.414,6.414,0,0,0,.469-2.227q0-.381-.256-.381a.54.54,0,0,0-.33.154,10.328,10.328,0,0,0-1.831,2.212A12.426,12.426,0,0,0,15.417-.1q-.081.271-.205.271A.3.3,0,0,1,15.059.1q-.374-.249-.425-.293a.515.515,0,0,1-.146-.381,1.382,1.382,0,0,1,.037-.286,40.6,40.6,0,0,1,2.2-7.947,9.708,9.708,0,0,1,1.816-3.208.618.618,0,0,1,.41-.2.945.945,0,0,1,.52.242Q19.834-11.667,20.208-11.367ZM23.73-8.188a.248.248,0,0,1,.117.2q0,.212-.63.659a1.033,1.033,0,0,1-.806.205.958.958,0,0,1-.381-.161.327.327,0,0,1-.077-.092.084.084,0,0,1-.011-.077q.022-.029.088-.015a8.976,8.976,0,0,0,.886-.842q.168-.19.242-.19A1.517,1.517,0,0,1,23.73-8.188ZM22.7-4.98a29.117,29.117,0,0,1-.916,3.289,5.021,5.021,0,0,0,.586-.7.138.138,0,0,1,.1-.066q.117,0,.029.205-.037.081-.615,1A7.29,7.29,0,0,0,21.24,0,.241.241,0,0,1,21,.168,1.071,1.071,0,0,1,20.522,0q-.19-.1-.19-.154a.572.572,0,0,1,.081-.19,12.075,12.075,0,0,0,.879-2.329,12.9,12.9,0,0,0,.52-2.351q.022-.33-.066-.33-.066,0-.234.161l-.454.425q-.242.22-.242.022a.267.267,0,0,1,.066-.146,10.368,10.368,0,0,1,.732-.916.326.326,0,0,1,.227-.125.705.705,0,0,1,.344.161,2.983,2.983,0,0,1,.374.11.409.409,0,0,1,.168.381A1.774,1.774,0,0,1,22.7-4.98Zm6.343,2.373Q28.6-1.941,27.9-.674q-.132.33-.256.659-.1.227-.271.227A1.1,1.1,0,0,1,26.982.1Q26.7-.015,26.7-.132a.7.7,0,0,1,.1-.227,12.748,12.748,0,0,0,.85-2.41,7.634,7.634,0,0,0,.344-2.314q-.015-.322-.146-.322-.1,0-.286.183A15.452,15.452,0,0,0,24.36-.4q-.168.374-.4.374a1.463,1.463,0,0,1-.535-.183q-.146-.066-.154-.125a.976.976,0,0,1,.081-.205A17.845,17.845,0,0,0,24.2-2.9,12.365,12.365,0,0,0,24.7-5.31q.015-.264-.015-.264s-.073.066-.205.2-.315.3-.549.513a.2.2,0,0,1-.146.066q-.1,0-.1-.081a.2.2,0,0,1,.073-.132q.315-.4.828-1a.309.309,0,0,1,.227-.125q.176,0,.308.256.593.176.557.542a15.118,15.118,0,0,1-.828,2.908,13.206,13.206,0,0,1,1.428-2.113,5.35,5.35,0,0,1,1.392-1.381.945.945,0,0,1,.322-.1.65.65,0,0,1,.308.161q.608.212.6.7a8.738,8.738,0,0,1-.249,1.648q-.2.938-.366,1.458.212-.271.542-.7a.159.159,0,0,1,.117-.073q.11,0,.11.139A.276.276,0,0,1,29.041-2.607Zm5.845-2.271a23.072,23.072,0,0,0-.93,3.135,3.876,3.876,0,0,0,.289-.315,3.02,3.02,0,0,1,.223-.249.285.285,0,0,1,.22-.132.1.1,0,0,1,.11.11.29.29,0,0,1-.059.154,5.939,5.939,0,0,0-.916,2.058q-.066.293-.2.293a1.107,1.107,0,0,1-.461-.234.562.562,0,0,1-.227-.22.675.675,0,0,1,0-.322,16.734,16.734,0,0,1,.769-3.091A17.477,17.477,0,0,1,31.97-1.406,10.185,10.185,0,0,1,30.586-.015.968.968,0,0,1,30.117.2a.81.81,0,0,1-.4-.212.721.721,0,0,1-.388-.645,1.309,1.309,0,0,1,.015-.183,7,7,0,0,1,.952-2.523,10.152,10.152,0,0,1,1.882-2.428.93.93,0,0,1,.615-.315q.264.015,1,.7a.168.168,0,0,1,.066.125q0,.117-.154.117a.276.276,0,0,1-.11-.022.81.81,0,0,0-.835.015A6.96,6.96,0,0,0,31.238-3.4,7.1,7.1,0,0,0,30.073-.762a.676.676,0,0,0-.007.1q0,.183.146.183a.942.942,0,0,0,.593-.344,19.464,19.464,0,0,0,1.758-2.007,10.161,10.161,0,0,0,1.23-1.89q.2-.469.256-.659.1-.33.205-.33a1.423,1.423,0,0,1,.513.3.4.4,0,0,1,.183.227A.723.723,0,0,1,34.885-4.878ZM49.651-9.492a.381.381,0,0,1,.1.256,1.3,1.3,0,0,1-.388.71q-.293.308-.586.623-.593,1.677-1.091,3.611a16.414,16.414,0,0,0-.615,3.347,1.677,1.677,0,0,1,.125.454q0,.293-.542.659a.367.367,0,0,1-.2.066A.309.309,0,0,1,46.223.1q-.073-.081-.139-.161-.11-.073,0-.63A34.159,34.159,0,0,0,44.275-4.57a19.512,19.512,0,0,0-1.436-2.417q-.3.967-1.091,2.981-.417,1.077-.842,2.146.2-.073.615.747a.3.3,0,0,1,.044.132q0,.125-.212.132Q41.492-.857,41-.857a1.046,1.046,0,0,0-.769.315l-.183.417q-.132.308-.374.308a.589.589,0,0,1-.22-.051q-.747-.3-.74-.593.015-.381,1.157-1.069A30.462,30.462,0,0,0,41.4-5q.747-1.9.974-2.673a3.172,3.172,0,0,0-1.047-1.121.785.785,0,0,0-.359-.11,1.592,1.592,0,0,0-.842.4.459.459,0,0,1-.271.1q-.168,0-.168-.154a.406.406,0,0,1,.154-.278q.806-.776,1-.923a1,1,0,0,1,.7-.293q.447.051,1.172,1.062a.915.915,0,0,0,.088-.586.339.339,0,0,1-.007-.066q0-.1.081-.1a.832.832,0,0,1,.425.242.428.428,0,0,1,.146.344,1.554,1.554,0,0,1-.1.469q-.081.212-.154.432a33.257,33.257,0,0,1,2.058,3.325A20.625,20.625,0,0,1,46.56-2.175q.256-1.663,1.245-5.493a4.223,4.223,0,0,1-.461-.359.365.365,0,0,1-.125-.22q0-.125.253-.106T48.721-9.6q.227-.278.381-.278Q49.314-9.88,49.651-9.492Zm3.86,4.856A7.426,7.426,0,0,1,53.2-2.908,6.318,6.318,0,0,1,51.848-.271a1.376,1.376,0,0,1-1.025.5,2.212,2.212,0,0,1-.564-.1A1.792,1.792,0,0,1,49.138-.3,1.322,1.322,0,0,1,48.7-1.392a7.757,7.757,0,0,1,.535-2.168,6.89,6.89,0,0,1,1.157-2.183q.286-.322.469-.322.249,0,.806.513.154-.073.63-.271a1.28,1.28,0,0,1,.366-.081q.286,0,.637.535A1.183,1.183,0,0,1,53.511-4.636Zm-.842.212q.051-.491.051-.623,0-.308-.19-.308a.823.823,0,0,0-.19.029L51.2-4.863a1.264,1.264,0,0,1-.227.081q-.059,0-.117-.139a5.362,5.362,0,0,0-.791,1.5,8.219,8.219,0,0,0-.4,1.377,3.9,3.9,0,0,0-.081.747q0,1.128.7,1.1a1.166,1.166,0,0,0,.6-.22,3.783,3.783,0,0,0,1.15-1.67A7.826,7.826,0,0,0,52.668-4.424ZM58.66-5.508A6.456,6.456,0,0,1,58.4-3.677q-.081.264-.22.264a1.179,1.179,0,0,1-.454-.293.355.355,0,0,1-.088-.417,3.853,3.853,0,0,0,.205-1.069q0-.139-.059-.139-.088,0-.286.264A13.938,13.938,0,0,0,55.225-.615q-.242.784-.41.784a3.145,3.145,0,0,1-.579-.256q-.249-.125-.168-.483a32.3,32.3,0,0,1,1.245-4.277,8.452,8.452,0,0,0-.688.784.184.184,0,0,1-.161.088q-.125,0-.125-.11a.257.257,0,0,1,.059-.146q.359-.432.959-1.318.183-.322.366-.322a1.609,1.609,0,0,1,.535.205q.227.117.073.315a8.345,8.345,0,0,0-.608,1.5Q55.3-2.6,55.137-1.89A20.731,20.731,0,0,1,57.4-5.808q.242-.322.388-.322a.676.676,0,0,1,.359.176.993.993,0,0,1,.388.1A.407.407,0,0,1,58.66-5.508Zm9.119-5.859a.185.185,0,0,1,.088.146q0,.139-.176.139a.312.312,0,0,1-.139-.037,1.342,1.342,0,0,0-.513-.168q-.454,0-1,.894A24.7,24.7,0,0,0,63.1-1.633a7.4,7.4,0,0,0,.513-.571q.19-.227.278-.227.2,0,.037.227A5.371,5.371,0,0,0,63-.1q-.088.271-.22.271A.3.3,0,0,1,62.615.1q-.366-.249-.41-.293a.491.491,0,0,1-.146-.374,1.406,1.406,0,0,1,.037-.293q.315-1.692.52-2.52a23.1,23.1,0,0,1-1.622,2.062,8.446,8.446,0,0,1-1.315,1.3A1.006,1.006,0,0,1,59.209.2a.81.81,0,0,1-.4-.212A.823.823,0,0,1,58.33-.7a.825.825,0,0,1,.015-.146,7.347,7.347,0,0,1,.978-2.531,10.083,10.083,0,0,1,1.886-2.421.93.93,0,0,1,.615-.315q.286.015,1.018.7a.168.168,0,0,1,.066.125q0,.117-.154.117a.314.314,0,0,1-.11-.022.812.812,0,0,0-.835.015A7.037,7.037,0,0,0,60.293-3.4,6.728,6.728,0,0,0,59.165-.762q-.037.278.146.278A.965.965,0,0,0,59.9-.828a20.086,20.086,0,0,0,1.75-2.007,10.161,10.161,0,0,0,1.23-1.89,4.913,4.913,0,0,0,.242-.674A27.568,27.568,0,0,1,64.827-10a7.211,7.211,0,0,1,1.289-2.007.588.588,0,0,1,.4-.2.976.976,0,0,1,.527.242Q67.4-11.667,67.778-11.367ZM69.4-5.508a6.456,6.456,0,0,1-.256,1.831q-.081.264-.22.264a1.179,1.179,0,0,1-.454-.293.355.355,0,0,1-.088-.417,3.853,3.853,0,0,0,.205-1.069q0-.139-.059-.139-.088,0-.286.264A13.938,13.938,0,0,0,65.962-.615q-.242.784-.41.784a3.145,3.145,0,0,1-.579-.256q-.249-.125-.168-.483A32.3,32.3,0,0,1,66.05-4.849a8.452,8.452,0,0,0-.688.784.184.184,0,0,1-.161.088q-.125,0-.125-.11a.257.257,0,0,1,.059-.146q.359-.432.959-1.318.183-.322.366-.322a1.609,1.609,0,0,1,.535.205q.227.117.073.315a8.345,8.345,0,0,0-.608,1.5Q66.035-2.6,65.874-1.89a20.731,20.731,0,0,1,2.263-3.918q.242-.322.388-.322a.676.676,0,0,1,.359.176.993.993,0,0,1,.388.1A.407.407,0,0,1,69.4-5.508Zm5.669.2a15.133,15.133,0,0,0-1.458,4.248q.205-.359.5-.916.037-.1.117-.1.11,0,.11.139a.243.243,0,0,1-.022.1A11.578,11.578,0,0,0,73.7-.2q-.088.366-.234.366a1.441,1.441,0,0,1-.571-.286.53.53,0,0,1-.154-.571,18.066,18.066,0,0,1,.74-2.776A26.131,26.131,0,0,1,71.1-.073a.613.613,0,0,1-.461.242A.974.974,0,0,1,70.159,0q-.505-.088-.505-.527A1.162,1.162,0,0,1,69.668-.7a11.763,11.763,0,0,1,.762-3.479q-.125.117-.374.344-.1.081-.146.044t.022-.168a5.488,5.488,0,0,0,.469-.762,3.574,3.574,0,0,1,.476-.886.367.367,0,0,1,.278-.161,1.277,1.277,0,0,1,.579.234q.1.066.1.132l-.161.242A7.939,7.939,0,0,0,70.9-3.2a9.52,9.52,0,0,0-.454,2.483q0,.315.132.315t.381-.271A17.5,17.5,0,0,0,72.59-2.944a19.576,19.576,0,0,0,1.143-1.919,2.307,2.307,0,0,1,.535-.879A.438.438,0,0,1,74.5-5.83a1.131,1.131,0,0,1,.4.154q.293.154.293.227,0,.022-.051.059A.225.225,0,0,0,75.066-5.31Zm5.984.8A8.974,8.974,0,0,1,80.4-1.853a5.235,5.235,0,0,1-1.04,1.809.878.878,0,0,1-.593.271,2.509,2.509,0,0,1-1.121-.542q-.154-.1-.154-.212,0-.139.2-.139a.816.816,0,0,1,.234.051.832.832,0,0,0,.249.051,1.179,1.179,0,0,0,.959-.681,7.548,7.548,0,0,0,.681-1.575,6.04,6.04,0,0,0,.337-2.117q-.022-.425-.286-.425a.932.932,0,0,0-.571.322A12.424,12.424,0,0,0,75.952.388a19.254,19.254,0,0,0-.732,3.325q-.007.051-.2,2.542-.029.359-.176.359T74.3,6.255a.672.672,0,0,1-.22-.645,37.546,37.546,0,0,1,1.765-8.123,23.752,23.752,0,0,1,1.8-4.541q.4-.608.7-.593a3.146,3.146,0,0,1,1.172.549q.117.073.117.154,0,.11-.176.11a.959.959,0,0,1-.146-.018.962.962,0,0,0-.154-.018q-.461,0-.959.784a10.376,10.376,0,0,0-.74,1.5,16.357,16.357,0,0,0-.645,1.736,13.133,13.133,0,0,1,2.5-3.018.639.639,0,0,1,.4-.19,1.213,1.213,0,0,1,.4.22A1.221,1.221,0,0,1,81.05-4.512Z" transform="translate(92 118)" fill="#fff"/>
    <path id="Path_106" data-name="Path 106" d="M11.044-15.444V-4.928A4.971,4.971,0,0,1,9.669-1.166,5.129,5.129,0,0,1,5.962.154,5.484,5.484,0,0,1,2.046-1.232,5.143,5.143,0,0,1,.572-5.17h3.74a2.3,2.3,0,0,0,.4,1.463,1.379,1.379,0,0,0,1.144.495,1.31,1.31,0,0,0,1.056-.44,1.92,1.92,0,0,0,.374-1.276V-15.444ZM21.384.154A8.06,8.06,0,0,1,17.391-.858a7.565,7.565,0,0,1-2.882-2.827,7.9,7.9,0,0,1-1.067-4.081,7.842,7.842,0,0,1,1.067-4.07,7.589,7.589,0,0,1,2.882-2.816,8.06,8.06,0,0,1,3.993-1.012,8.06,8.06,0,0,1,3.993,1.012,7.43,7.43,0,0,1,2.86,2.816,7.97,7.97,0,0,1,1.045,4.07,7.965,7.965,0,0,1-1.056,4.081,7.508,7.508,0,0,1-2.86,2.827A8,8,0,0,1,21.384.154Zm0-3.432A3.79,3.79,0,0,0,24.343-4.51a4.677,4.677,0,0,0,1.111-3.256,4.668,4.668,0,0,0-1.111-3.267,3.807,3.807,0,0,0-2.959-1.221,3.85,3.85,0,0,0-2.981,1.21,4.659,4.659,0,0,0-1.111,3.278A4.668,4.668,0,0,0,18.4-4.5,3.833,3.833,0,0,0,21.384-3.278ZM35.068-15.444V-6.2A3.057,3.057,0,0,0,35.75-4.07a2.573,2.573,0,0,0,2,.748,2.646,2.646,0,0,0,2.024-.748,3,3,0,0,0,.7-2.134v-9.24h3.762v9.218a6.554,6.554,0,0,1-.88,3.5A5.635,5.635,0,0,1,41-.572a7.438,7.438,0,0,1-3.311.726,7.252,7.252,0,0,1-3.267-.715,5.33,5.33,0,0,1-2.277-2.156,6.885,6.885,0,0,1-.836-3.509v-9.218ZM54.758,0,51.546-5.83h-.9V0H46.882V-15.444H53.2a6.951,6.951,0,0,1,3.113.638,4.395,4.395,0,0,1,1.925,1.749,4.88,4.88,0,0,1,.638,2.475A4.6,4.6,0,0,1,58-7.832,4.677,4.677,0,0,1,55.44-6.116L59,0ZM50.644-8.492h2.332A2.135,2.135,0,0,0,54.527-9a1.91,1.91,0,0,0,.517-1.43,1.85,1.85,0,0,0-.517-1.386,2.135,2.135,0,0,0-1.551-.506H50.644ZM64.988-12.43v3.124h5.038v2.9H64.988v3.388h5.7V0h-9.46V-15.444h9.46v3.014ZM86.944,0H83.182L76.89-9.526V0H73.128V-15.444H76.89l6.292,9.57v-9.57h3.762Z" transform="translate(85 102)" fill="#fff"/>
  </g>
</svg>
