<svg xmlns="http://www.w3.org/2000/svg" xmlns:xlink="http://www.w3.org/1999/xlink" width="339" height="423" viewBox="0 0 339 423">
  <defs>
    <clipPath id="clip-path">
      <rect id="Rectangle_132" data-name="Rectangle 132" width="339" height="423" transform="translate(1025.001 4014.113)" fill="none" stroke="#707070" stroke-width="1"/>
    </clipPath>
    <clipPath id="clip-path-2">
      <path id="Path_33" data-name="Path 33" d="M378.731,133c-12.191,5.691-23.8,11.165-35.459,16.534-8.174,3.765-16.558,7.1-24.587,11.147-10.13,5.105-18.649,12.5-26.406,20.677-5.615,5.921-11.05,12.043-16.147,18.411-4.9,6.116-9.247,12.668-13.864,19.009a17.568,17.568,0,0,1-1.935,1.863c-1.558-3.249-2.9-6.3-4.473-9.227a14.031,14.031,0,0,0-3.375-4.617c-2.708-2.05-2.3-4.5-1-6.65a72.1,72.1,0,0,1,7.1-9.7c3.655-4.236,7.489-8.339,11.489-12.251a153.3,153.3,0,0,1,24.876-19.791,88.629,88.629,0,0,1,23.257-10.442c9.224-2.659,18.613-4.745,27.834-7.41,5.511-1.593,10.832-3.838,16.252-5.752a35.56,35.56,0,0,1,12.027-2.035,43.169,43.169,0,0,1,4.408.232m-36.4,85.342c-9.249,1.1-18.329,3.648-27.465,5.649a62.845,62.845,0,0,0-8.266,2.292c-5.736,2.112-11.614,4-17.031,6.775-8.268,4.227-16.195,9.121-24.542,13.89-.3-2.231-.571-4.779-.98-7.306-.78-4.818-1.761-9.608-2.371-14.445a5.991,5.991,0,0,1,1.338-3.673c3.691-5.2,7.651-10.21,11.267-15.46,6.49-9.424,13.686-18.191,22.473-25.587,4.951-4.167,9.427-9.094,14.884-12.422,8.821-5.381,18.2-9.881,27.485-14.461,7.994-3.943,16.145-7.578,24.31-11.161,5.518-2.421,11.163-4.56,16.787-6.732,1.963-.758,3.555.015,3.784,2.129.575,5.291,1.668,10.677,1.193,15.9-1.062,11.681-2.516,23.368-4.652,34.9-1.544,8.338-4.282,16.474-6.8,24.6-1.446,4.673-2.431,4.984-7.281,4.944-4.9-.041-9.828-.32-14.726-.32a79.673,79.673,0,0,0-9.407.485M202.174,183.349c5.98.463,11.906,1.976,17.78,3.345a44.816,44.816,0,0,1,10.545,3.555c6.338,3.306,11.49,8.091,16.176,13.588,5.847,6.86,10.767,14.182,12.786,22.943,2.274,9.871,4.221,19.906,2.045,30.12-.663,3.11-1.291,6.263-4.6,8.035-1.106.592-1.715,2.113-2.781,3.51a37.3,37.3,0,0,0-22.7-13.556c-8.972-1.717-18.083-2.052-27.121.156-7.97,1.947-16.008,3.627-23.935,5.73a133.366,133.366,0,0,0-16.688,5.366c-7.347,3.031-13.483.242-19.269-3.5-4.658-3.012-9.452-6.31-12.943-10.513-5.392-6.492-9.963-13.756-12.163-22.122-1.46-5.549-3.115-11.108-3.828-16.77-.448-3.557.415-7.369,1.168-10.968a168.42,168.42,0,0,1,4.173-16.4c2.222-7.013,4.887-13.885,7.438-21.033,4.094,2.849,7.292,5.287,10.7,7.383a75.665,75.665,0,0,0,8.953,4.6c3.21,1.425,6.453,3.108,9.853,3.7a172.648,172.648,0,0,0,20.322,2.379c3.692.2,7.4.184,11.1.165q1.613-.009,3.225-.011c3.262,0,6.519.05,9.763.3M98.163,255.721c-1.012,4.806-3.327,9.323-4.675,14.08-.557,1.966-1.344,2.456-3.216,2.654a44.233,44.233,0,0,0-10.041,1.826,6.481,6.481,0,0,1-6.862-1.148,56.975,56.975,0,0,1-8.481-8.869A156.28,156.28,0,0,0,42.445,240.1a37.81,37.81,0,0,1-4.948-5.372c-2.183-2.881-1.146-6.469,2.274-7.366,4.536-1.189,9.191-1.928,13.795-2.86.938-.19,1.9-.3,2.812-.577,7.22-2.154,14.3-5.072,21.674-6.335a82.079,82.079,0,0,1,31.273.577,6.385,6.385,0,0,1,5.422,5.018,80.981,80.981,0,0,0,6.117,16.4,68.591,68.591,0,0,0,10.216,15.278c3.977,4.279,9.294,7.313,14.033,10.881.727.547,1.507,1.024,2.641,1.789-3.1,0-5.422.03-7.739-.006-6.68-.1-12.227-3.154-17.565-6.765-3.69-2.5-7.327-5.091-11.167-7.336a13.84,13.84,0,0,0-5.762-1.709c-.838-.064-1.68-.15-2.485-.15-2.21,0-4.132.647-4.871,4.159M319.583,245.61c6.672.842,13.534,1.042,19.956,2.815,11.27,3.112,22.34,7.007,33.353,10.967,6.821,2.453,13.381,5.63,20.058,8.481l-.352.894c-9.788.786-19.638,1.73-28.8,5.39-10.842,4.332-21.356,9.481-32.034,14.227a66.519,66.519,0,0,1-22.458,6c-7.464.517-14.955,1.329-22.411,1.132-10.4-.276-19.227-4.507-25.615-12.955a36.006,36.006,0,0,1-5.533-9.391c-.528-1.5.873-4.426,2.294-5.722a61.523,61.523,0,0,1,10.948-8.107,100.447,100.447,0,0,1,15.906-7.464c5.48-1.934,11.375-2.655,16.969-4.313a47.445,47.445,0,0,1,13.511-2.216,33.545,33.545,0,0,1,4.2.261m-211.22,17.423c7.766,14.648,17.238,28.039,29.347,39.41,3.256,3.058,7.207,5.377,10.838,8.035q-.1.451-.2.9c-5.226-.526-10.572-.533-15.655-1.69-10.123-2.3-19.717-6.273-27.578-13.2-9.1-8.018-13.593-18.138-8.164-31.247,1.438-3.473,1.924-7.488,6.545-9.828,1.637,2.537,3.464,4.966,4.87,7.617m120.023-6.121c8.826,1.207,16.7,4.918,22.643,11.829,2.371,2.758,2.1,8.2-.419,10.765-3.988,4.07-7.837,8.384-12.343,11.809-5.9,4.489-12.387,8.217-18.626,12.266-2.677,1.738-5.291,3.591-8.062,5.166-9.4,5.346-19.6,7.365-30.35,7.587a62.513,62.513,0,0,1-21.549-2.867,37.177,37.177,0,0,1-5.884-3.08c-13.708-7.614-24.191-18.685-32.95-31.423-4.064-5.91-7.313-12.378-11.021-18.539-1.28-2.127-2.833-4.091-4.594-6.605,4.327.394,7.227,2.8,10.2,5.07,6.9,5.271,13.874,10.352,22.974,11.127,10.978.936,21.791.69,32.25-3.418,10.716-4.209,21.867-6.714,33.169-8.9a77.726,77.726,0,0,1,14.788-1.452,72.041,72.041,0,0,1,9.773.663M394.156,271.6l.572.988c-2.1,2.95-4.321,5.823-6.282,8.863-6.622,10.269-16.32,17.573-25.032,25.78-5.739,5.406-13.032,8.231-20.976,9.088-3.494.376-6.968.939-10.466,1.274a61.378,61.378,0,0,1-37.352-8.342A45.2,45.2,0,0,1,281.585,298c7.724,0,15.585.589,23.318-.153a81.276,81.276,0,0,0,26.772-6.81q10.845-5.05,21.8-9.865c8.089-3.549,16.131-7.208,25.187-7.787,4.151-.265,8.257-1.2,12.393-1.765a8.4,8.4,0,0,1,1.141-.068c.652,0,1.31.047,1.962.047M294.873,321.04c-3.446-.89-5.994-4.335-6-8.636l6,8.636M100.381,295.509c-3.205,1.4-5.961,2.674-8.772,3.812-14.71,5.952-30.194,7.594-45.854,7.788a62.487,62.487,0,0,0-30.209,8.277c-3.082,1.729-5.4,4.808-8.1,7.24-1.071.967-2.214,1.855-3.325,2.779l-1.008-.689a35.758,35.758,0,0,1,2.664-4.783c6.8-8.826,15.823-14.675,25.519-19.963,11.99-6.539,23.254-14.518,36.154-19.221,7.857-2.864,16.149-4.534,25.02-6.951.64,8.588,2.183,15.626,7.906,21.71M241.848,338.58l-4.921-.971c.6-1.123,1.019-3.031,1.835-3.219a3.391,3.391,0,0,1,.759-.1c1.749,0,2.074,1.824,2.328,4.286m-12.44-.214c-1.135.51-2.233,1.021-2.842-1.23-.2-.738,1.275-2.744,2.014-2.764,1.91-.05,3.72.787,3.008,3.786a1.216,1.216,0,0,0-.73-.231,3.786,3.786,0,0,0-1.449.439m-15.014,1.694q-.184,1.51-.366,3.02l-1.845.005q-.167-1.658-.334-3.314l2.545.289M360.355,220.668c8.752.439,17.814.466,26.11,2.854,11.45,3.3,22.916,7.293,32.167,15.67,6.219,5.632,13.214,10.409,19.406,16.068,9.359,8.555,18.228,17.644,27.494,26.306,4.088,3.821,3.817,6.815.124,11.432-4.443,5.556-9.624,10.534-14.6,15.646-4.685,4.807-9.4,9.6-14.324,14.153-6.765,6.262-13.034,13.316-21.633,17.116-5.677,2.509-11.761,4.136-17.739,5.9a4.985,4.985,0,0,1-5.612-1.771c-6.485-7.572-13.028-15.121-20-22.239-3.3-3.364-7.608-5.732-11.634-8.68,3.625-3.022,7.728-5.563,10.669-9.077,5.969-7.133,14.505-11.778,19.03-20.315,1.964-3.7,4.972-6.842,7.293-10.376,1.615-2.459,1.018-5.007-1.715-6.4-6.809-3.467-13.62-7-20.689-9.867-8.245-3.346-16.678-6.306-25.2-8.88a152.149,152.149,0,0,0-18.8-4.081,75.222,75.222,0,0,0-25.3-.045c-11.615,2-22.876,5.17-33.33,10.793-2.522,1.357-5.055,2.694-7.81,4.161-1.05-4.93,1.269-8.155,4.709-10.776,7.734-5.891,16.225-10.466,24.931-14.782,5.112-2.534,10.556-3.5,15.851-5.155,5.789-1.813,11.594-3.6,17.466-5.122a96.719,96.719,0,0,1,24.356-2.769c2.927,0,5.858.089,8.787.236M207.67,346.242h-4.032l-.558-.889,3.143-2.348,1.446,3.237m51.743-3.5-2.827,3.806-2.027-1.326q.552-2.229,1.1-4.457l3.751,1.977m5.829,2.416a40.733,40.733,0,0,1,2.092,4.469l-4.864.295a39.193,39.193,0,0,1,.953-4.579c.054-.167.769-.3,1.289-.3.265,0,.479.034.53.117m6.9,3.392c.88.279,2.122,1.5,2.047,2.208-.107,1-1.267,1.893-1.978,2.831l-2.817-2.762c1.232-1.068,2.151-2.291,2.663-2.29a.29.29,0,0,1,.085.012M161.1,316.558c1.656.575,3.354,1.027,4.185,1.278-7.737,4.026-15.9,8.216-24.015,12.511-8.89,4.707-17.811,9.367-26.554,14.338-3.852,2.19-7.169,5.3-10.965,7.609a28.656,28.656,0,0,1-8.665,3.753c-9.639,2.034-19.252,1.413-28.853-.867-14.465-3.434-27.406-10.049-39.943-17.819-5.3-3.285-11.257-5.51-16.914-8.218-1.042-.5-2.08-1.007-2.982-1.444,5.392-7.392,12.385-12.679,20.987-15.139a82.848,82.848,0,0,1,18.641-2.971c11.674-.565,23.367-1.016,34.689-3.987,6.653-1.746,12.972-4.749,19.492-7.042a3.992,3.992,0,0,1,3.181.34,79.82,79.82,0,0,0,25.941,12.363,48.958,48.958,0,0,0,17.319,2.1q.758-.064,1.494-.063c4.644,0,8.72,1.785,12.962,3.256M280.675,357.41l-.248,1.05-3.858,1.6,1.19-4.2,2.916,1.552m.352,9.874c-.013.619-1.074,1.521-1.824,1.716-.5.129-1.259-.77-2.489-1.608l2.842-2.359c.533.751,1.484,1.51,1.47,2.251m83.693-48.1c8.407,6.769,15.54,14.726,22.3,23.068,5.63,6.943,11.369,13.8,17.021,20.724,1.47,1.8,2.8,3.719,4.677,6.238-15.148-3.368-28.837-8.063-40.955-16.857-12.037-8.734-20.12-20.946-29.565-32.345,4.335-1.012,8.811-1.126,12.254-3.069a11.38,11.38,0,0,1,5.627-1.662c3.1,0,5.8,1.622,8.636,3.9M209.8,369.053c.723.089,1.317,1.236,1.966,1.922-.733.64-1.389,1.591-2.23,1.8-.486.121-1.27-.954-2.33-1.83,1.108-.861,1.886-1.9,2.524-1.9a.616.616,0,0,1,.069,0m67.268,4.75a3.055,3.055,0,0,1-1.955,2.2c-.686.136-1.622-.99-3.132-2.027,1.538-1.177,2.368-2.2,3.361-2.4a.226.226,0,0,1,.04,0c.493,0,1.733,1.5,1.687,2.232m-49.769-.08a11.652,11.652,0,0,1,2.61,2.285c-.542.532-1.229,1.6-1.6,1.5a23.769,23.769,0,0,1-4.148-2.145c1.555-.85,2.493-1.668,2.99-1.668a.34.34,0,0,1,.147.03m109.821-50.457c4.884,5.622,9.241,11.729,14.382,17.093,11.055,11.536,23.212,21.566,39.049,26.089,4.995,1.426,9.87,3.3,14.737,5.134,3.492,1.317,4.513,2.67,4.912,6.065-1.674.087-3.394.534-4.945.2-10.31-2.227-20.567-4.7-30.877-6.929-5.533-1.2-11.146-2.021-16.707-3.1a70.114,70.114,0,0,1-21.032-8.114c-14.622-8.214-25.661-20.321-35.917-33.224-2.28-2.868-3.8-6.334-5.728-9.49-1.183-1.937-2.478-3.805-4.079-6.249,4.6,2.006,8.64,4.022,12.856,5.547,8.393,3.035,17.077,4.951,26.037,4.049a10.716,10.716,0,0,1,1.07-.055,7.836,7.836,0,0,1,6.242,2.982m-85.136,55.082c-3.382-2.6-3.626-4.147-1.75-9.762.746-2.234,1.143-4.585,1.7-6.882l-1.107-.379c-.689,1.836-1.475,3.642-2.039,5.515-.613,2.036-.646,4.338-1.629,6.145-.882,1.622-2.709,2.731-3.941,3.9-5.956-4.3-1.04-8.624-.836-12.824a16.9,16.9,0,0,0,.109-3.8c-3.5,4.868-2.427,12.3-9.06,14.908-5.431-3.442-1.932-7.7-1.2-11.719.337-1.848.682-3.7,1.023-5.542l-1.153-.322-4.15,13.025-4.686,2.771c-4.818-3.62-1.136-7.638-.179-11.6a27.054,27.054,0,0,0,.869-5.171c-3.865,4.312-3.538,10.917-8.332,14.975-4.954-6.131.539-11.535.541-17.076l-.963-.317-5.177,12.435c-3.242-6.538,1.463-11.667,2.11-17.246l-.973-.422-5.636,11.97-3.336-6.323c1.26-2.67,2.256-5.834,6.407-6.26.9-.093,1.624-1.985,2.637-3.324,2.315.656,4.691.57,6.535-2.161.228-.337.961-.274,1.745-.21a3.326,3.326,0,0,0,2.061-.212c3.675-2.858,8.583-.059,12.147-2.917,3.338,2.145,6.919,1.532,10.564,1.16,1.136-.116,2.35,1.17,3.6,1.4a19.449,19.449,0,0,0,4.137-.141c.4,1.286.476,3.8,1.767,4.976,1.228,1.122,3.728.853,6.049,1.262.577.895,1.263,3.092,2.716,3.889s3.657.173,5.709.173c1.343,3.551,1.584,3.729,5.344,3.908l3.2,6.788-3.232,6.675-.89-.394q-.129-2.585-.259-5.17l-1.225-.075c-.254,3.364-.508,6.726-.77,10.2-3.124.045-4.052-1.026-3.087-3.941.533-1.608.35-3.453.49-5.191l-1.028-.214c-1.3,4.181-2.61,8.361-3.923,12.569-3.729-1.546-4.878-3.389-3.154-6.827.9-1.8.755-4.128.691-6.377-3.064,4.628-2.821,11.125-8.435,14.154M237.8,376.073c3.554.615,1.377,2.712,1.51,4.029l-4.985-1.037c.227-1.74.616-3.082,2.53-3.082a5.554,5.554,0,0,1,.944.09m31.247,1.455c.852,2.7-1.382,3.3-3.37,4.256-1.154-2.212-1.635-4.114.587-5.235a1,1,0,0,1,.441-.082c.831,0,2.185.566,2.342,1.06m-10.894.47c.808.166,1.283,1.945,1.909,2.989l-5.569,1.448c-.216-3.365.99-4.541,2.706-4.541a4.755,4.755,0,0,1,.953.1m-11.323.136c1.14.24,2.019,1.72,3.016,2.637l-3.855,3.772c-.977-1.473-2.027-2.355-1.9-3,.273-1.353.253-3.481,2.1-3.481a3.105,3.105,0,0,1,.64.073M159.252,331.5a110.677,110.677,0,0,0-26.878,34.167c-6.539,12.905-13.911,25.471-24.581,35.494-7.136,6.7-15.124,12.349-25.025,14.645-3.621.84-7.016,2.614-10.613,3.6-5.234,1.435-10.543,2.61-15.848,3.771A53.521,53.521,0,0,0,38.357,431.2a8.846,8.846,0,0,1-1.068.517l-.825-.712c2.294-4.158,4.229-8.57,6.961-12.416a201.8,201.8,0,0,1,15.257-19.628c8.728-9.533,18.035-18.539,27.158-27.707a171.28,171.28,0,0,1,34.417-27.175c7.871-4.632,16.15-8.572,24.254-12.8,5.939-3.1,11.791-6.4,17.877-9.174a42.129,42.129,0,0,1,11.775-3.107c-4.973,4.165-10,8.273-14.91,12.507m209.063,47.379c6.873,7.715,11.547,16.736,15.182,26.336,2.669,7.046,5.582,14.013,7.9,21.173,2.191,6.763,3.58,13.783,5.639,20.594,1.683,5.566,3.908,10.966,5.742,16.489.7,2.1.978,4.345,1.66,7.509-2.49-2.149-4.134-3.838-6.033-5.16a69.212,69.212,0,0,1-20.867-22.588,61.2,61.2,0,0,1-7.746-30.452c-.041-11.1-3.389-21.169-8.543-30.715-2.424-4.49-5.614-8.567-8.682-13.17,6.963,1.03,11.546,5.271,15.745,9.986M309.45,340.912c8.281,8.7,17.364,16.625,28.306,21.945,13.381,6.507,20.708,17.737,25.864,31.153,3.009,7.832,3.012,15.873,3.649,23.927A62.372,62.372,0,0,0,380,451.107a72.361,72.361,0,0,0,16.309,16.054,15.807,15.807,0,0,1,4.289,4.887,6.623,6.623,0,0,1-1.855-.289c-7.543-3.577-14.93-7.525-22.635-10.706-6.585-2.718-13.5-4.664-20.322-6.778-9.862-3.056-20.011-5.348-29.591-9.1-8.433-3.3-16.483-7.853-22.711-14.81a67.788,67.788,0,0,1-13.887-22.6c-1.281-3.618-3.216-7.012-4.4-10.655-1.684-5.17-2.962-10.474-4.392-15.727-.392-1.442-.736-2.9-1.05-4.362-.489-2.273-.856-4.293,2.261-5.3,2.624-.845,2.066-3.433,1.9-5.527q-.922-11.37-1.96-22.732c-.176-1.96-.478-3.909-.723-5.862l-1.024-.046a14.787,14.787,0,0,0-.563,2.961c.032,2.994.2,5.988.338,8.981.087,1.926-.314,3.441-2.233,3.427a62.7,62.7,0,0,1-2.429-6.253,34.641,34.641,0,0,1-1-6.279c-.359-4.286-.57-8.584-.843-12.877l-1.562.04c0,1.948,0,3.9,0,5.844-.009,3.529.026,7.06-.076,10.587a6.922,6.922,0,0,1-.862,2.163c-.773-.387-2.061-.617-2.234-1.186a51.22,51.22,0,0,1-2.1-8.888c-.369-3.185-.091-6.44-.209-9.66a26.585,26.585,0,0,0-.621-3.632l-.841-.074a15.832,15.832,0,0,0-.632,3.088c-.033,4.6.164,9.2.009,13.791-.042,1.223-1.037,2.413-1.826,4.119-6.515-7.463-3.258-15.927-6.048-23.425-.186,2.173-.512,4.346-.519,6.521a58.335,58.335,0,0,0,.455,7.378c.342,2.752-.662,4.377-3.276,4.86-4.166-6.736-1.5-14.279-2.084-21.439l-.958,0c-.5,3.742-1.175,7.472-1.449,11.231-.21,2.887.153,5.85-3.988,6.53l-4.44-4.159,4.28-20.679c-4.967,7.427-3.742,17.089-9.215,24.276-5.494-2.732-5.434-2.769-4.055-8.27a49.93,49.93,0,0,0,1.506-10.469c-3.607,6.246-2.276,14.78-9.525,19.373-2.9-.873-1.833-3.192-1.391-5.326.752-3.633,1.48-7.27,2.219-10.905l-1.049-.314c-.893,2.866-1.874,5.708-2.652,8.605-.606,2.257-.666,4.7-1.538,6.831-.485,1.185-2.135,1.894-3.259,2.818a8.973,8.973,0,0,1-.618-2.973c.415-2.833,1.117-5.622,1.646-8.44a3.914,3.914,0,0,0-.319-2.229c-3.607,5.257-2.257,13-8.907,17.093-.754-4.481,1.528-8.347,2.186-12.412l-.838-.346-8.172,18.536-3.221.8c1.131-4.318,2.19-8.363,3.244-12.384l-.636-.311c-1.127,4.464-6.516,4.926-8.318,9.081-1.111,2.562-4.258,4.16-5.885,6.6a221.056,221.056,0,0,0-11.836,19.106c-3.177,6-5.268,12.562-8.22,18.693a73.4,73.4,0,0,1-7.162,12.1,88.28,88.28,0,0,1-26.488,23.28,78.406,78.406,0,0,1-38.309,10.98c-11.632.288-23.269.389-34.9.675-2.453.06-4.894.8-7.342.811-4.063.019-8.128-.3-12.192-.472l-.406-1.653c4.058-2.185,7.907-5.024,12.223-6.407,7.188-2.3,14.731-3.474,22.025-5.479,15.727-4.323,29.987-11.1,41.051-23.744,8.555-9.777,14.787-20.93,20.738-32.291a108.105,108.105,0,0,1,29.891-35.759c4.634-3.588,9.413-6.991,14.182-10.4a5.768,5.768,0,0,1,2.635-.865c4.245-.476,8.508-.8,12.751-1.286,8.585-.987,16.064-4.736,23.243-9.3,4.175-2.654,8.59-4.934,12.735-7.631,6.213-4.043,12.227-8.323,16.95-14.226,1.794-2.243,4.354-3.873,6.6-5.815a78.193,78.193,0,0,1,6.2,5.4c3.587,3.851,6.908,7.95,10.479,11.816.8.871,2.978,1.906,3.175,1.681,1.608-1.828-.509-2.35-1.449-3.3a3.766,3.766,0,0,1-.475-.842c5.566.254,6.208,1.421,6.434,11.592,1.725.016,1.725.016,2.781-5.359l6.452,8.312c-2.418,1.916-2.137,5.272,2.091,10.926,2.7,3.613,3.358,3.84,5.583,2.3,4.752,6.022,9.068,12.415,14.312,17.925M236.8,386.186c-1.088,3.642-2.148,8.537-4,13.109-3.461,8.526-7.165,16.972-11.178,25.251a86.291,86.291,0,0,1-16.093,23.178c-10.1,10.283-19.546,21.212-29.362,31.781-2.446,2.635-5.244,4.943-7.881,7.4l-.76-.642c.122-2.513.378-5.028.34-7.539a79.385,79.385,0,0,0-2.824-19.289c-1.569-5.91-1.482-12.278-1.936-18.459-.3-4.131-.384-8.286-.369-12.43.023-5.958-.106-11.945.446-17.862a95.571,95.571,0,0,1,2.919-16.633A81.318,81.318,0,0,1,172.4,377.4c4.706-8.782,10.019-17.26,15.453-25.622,2.485-3.826,5.863-7.071,9.319-11.148-2.291,5.349-2.675,10.115-.48,15.051-3,3.86-1.807,6.224,4.124,7.2-.47,3.383.2,6.185,4.321,6.328.746,5.451,3.3,7.073,8.287,5.4l.662,3.313,8.546.522c1.951,4.3,4.39,4.8,8.3,1.36l5.876,6.384m40.967-7.113c.777,3.648,1.229,7.838,2.58,11.715,3.8,10.9,7.3,21.987,14.2,31.468,2.567,3.526,2.516,7.46,1.491,11.023-2.647,9.21-7.191,17.549-12.478,25.605-7.563,11.522-14.5,23.454-21.64,35.253-2.052,3.391-3.754,6.995-5.838,10.364-1.335,2.158-3.439,2.23-5.181.208-3.035-3.525-5.662-7.424-8.874-10.768-4.58-4.769-9.474-9.245-14.341-13.729-8.682-8-16.144-16.825-19.563-28.405a4.262,4.262,0,0,1,.614-3.412,136.7,136.7,0,0,0,22.289-37.742c3-7.509,5.48-15.234,8.058-22.908a41.531,41.531,0,0,0,1.108-5.992l1.141.106c2.034,4.148,5.008,6.623,10.915,1.3,5.37,2.749,7.849,2.528,9.4-.125a49.1,49.1,0,0,0,6.8.325c2.889-.265,3.566-2.5,3.595-5.039l5.722.748M253.9,509.051c1.948,0,3.809-1.187,5.291-3.56a45.413,45.413,0,0,0,4.552-8.78c3.858-10.976,10.432-20.471,16.875-29.877,7.878-11.5,15.7-22.836,18.835-37.07,3.179,2.963,5.974,6.2,9.354,8.605,12.445,8.876,26.711,13.421,41.376,17.131a222.543,222.543,0,0,1,25.6,8.056c8.717,3.368,17.049,7.721,25.6,11.527,2.882,1.283,5.727-.805,5.709-4.063a12.125,12.125,0,0,0-.607-3.774c-2.293-6.751-4.887-13.408-6.98-20.218-3.158-10.28-5.637-20.778-9.043-30.97-4.762-14.251-10.545-28.078-20.692-39.563-1.3-1.467-2.635-2.9-4.422-4.857,1.386.207,2.084.262,2.756.42,4.878,1.15,9.737,2.381,14.628,3.468,4.688,1.043,9.43,1.846,14.107,2.933,4.773,1.108,9.371,2.788,14.49,1.7,3.783-.8,4.144-1.115,3.147-4.884-1.423-5.375-5.082-9.289-8.364-13.444-3.329-4.214-6.858-8.27-10.633-12.8,1.383-.293,1.991-.467,2.611-.547a47.709,47.709,0,0,0,22.381-8.827c8.324-6.178,15.815-13.509,23.442-20.583,5.793-5.373,11.318-11.043,16.807-16.732a75.533,75.533,0,0,0,8.925-10.4c2.55-3.856,2.125-8.461-.112-10.6-5.976-5.7-11.843-11.528-18.026-17-10.755-9.51-21.718-18.785-32.588-28.164-9.657-8.333-21.625-11.705-33.406-15.391-3.493-1.092-7.25-1.342-11.048-2.007,1.319-4.23,2.666-8.243,3.816-12.313,1.556-5.505,3.288-10.992,4.355-16.6,1.7-8.928,3.212-17.914,4.249-26.939,1.029-8.96,2.674-18-1.421-26.835-2.047-4.415-3.693-6.3-8.755-5.836a94.878,94.878,0,0,0-16,2.748c-8.221,2.226-16.272,5.072-24.408,7.617-4.367,1.366-8.7,3.452-13.154,3.8-9.158.719-17.066,4.7-24.759,8.831a108.093,108.093,0,0,0-29.252,22.564c-1.6,1.764-15.825,17.386-19.482,21.9.115-2.293-2.13-4.027-2.919,2.1-1.433-1.311-2.068-1.958-2.77-2.522-3.466-2.781-6.563-6.454-10.507-8.115a149.305,149.305,0,0,0-24.779-8.166c-4.139-.939-8.51-.88-12.872-.822-1.693.023-3.384.046-5.061.01-1.261-.026-2.526.047-3.79.121-1.408.082-2.815.164-4.217.108-5.132-.207-10.257-.912-15.382-.888-8.728.041-15.913-4.954-24.017-6.879-.187-.044-.327-.27-.5-.4-3.675-2.9-7.366-5.777-11.019-8.7-1.758-1.408-3.256-1.3-5.182-.026-3.039,2.011-3.587,5.246-4.455,8.22-2.3,7.895-4.235,15.9-6.446,23.819-1.4,5.018-3.131,9.947-2.866,15.277.088,1.771.014,3.549.014,5.59-3.444-.7-6.542-1.693-9.694-1.913-15.414-1.077-30.517.3-45.006,6.188-1.945.79-4.146.936-6.217,1.432-5.753,1.38-11.919,1.168-17.043,5.006-1.65,1.237-2.221,2.291-1.976,4.189.577,4.457,3.918,6.957,6.784,9.785,5.906,5.826,12.1,11.382,17.706,17.485,5.075,5.528,7.8,13.067,15.02,17.327-1.04.579-1.724,1.017-2.453,1.358-8.746,4.088-17.69,7.8-26.2,12.339s-16.555,9.931-24.84,14.89c-7.458,4.465-13.032,10.837-17.79,17.907A5.944,5.944,0,0,0,0,325.649v.074c.02,1.93,1.565,3.421,4.347,4.47a132.048,132.048,0,0,1,13.577,5.5c9.181,4.688,18.086,9.915,27.259,14.62,12.354,6.337,25.717,8.911,39.467,9.454,3.522.139,7.085-.788,11.071-1.28a16.094,16.094,0,0,1-1.453,1.7c-14.492,12.225-27.518,25.926-40.105,40.046-3.532,3.962-6.311,8.587-9.7,12.692a53.83,53.83,0,0,0-9.785,17.021c-.938,2.772.456,7.092,2.55,7.277,4.992.443,10.012.662,15.025.735,3.2.047,6.411-.449,9.62-.487,3.178-.038,6.359-.019,9.539,0,5.824.034,11.647.069,17.452-.241a132.828,132.828,0,0,0,22.574-2.772c10.323-2.369,19.722-7.187,28.435-13.3a102.331,102.331,0,0,0,22.345-21.883c-.137,1.9-.178,2.876-.284,3.849-.551,5.095-1.473,10.18-1.594,15.285-.165,6.957.008,13.949.531,20.889.553,7.334,1.406,14.672,2.644,21.921,1.444,8.457,3.616,16.807,1.274,25.434a6.625,6.625,0,0,0-.021,1.765c4.463,3.173,7.3-.56,9.51-2.76,7.366-7.332,14.169-15.229,21.235-22.866,3.251-3.514,6.612-6.926,10.125-10.6a18.748,18.748,0,0,0,.748,3.3,75.189,75.189,0,0,0,15.171,22.221c7.878,7.9,15.637,15.913,23.4,23.928,1.4,1.447,2.472,3.209,3.831,4.7a7.1,7.1,0,0,0,5.1,2.7Z" transform="translate(0 -130.211)" fill="#edf0ee"/>
    </clipPath>
    <clipPath id="clip-path-3">
      <path id="Path_34" data-name="Path 34" d="M8.047,14.106C-.709,12.3,3.418,5.254,2.178,0,1.638.467,1.15.708.939,1.1-1.125,4.92.41,12.65,3.624,15.524a3.3,3.3,0,0,0,2.026,1.051c.866,0,1.623-.757,2.4-2.469" fill="#edf0ee"/>
    </clipPath>
    <clipPath id="clip-path-4">
      <path id="Path_35" data-name="Path 35" d="M12.524,11.7c-2.986-1.068-6.391-1.381-8.337-3.23C2.174,6.561,1.576,3.157.18,0-.8,7.183,2.244,12.019,8.539,13.543A6.272,6.272,0,0,0,10,13.738,2.308,2.308,0,0,0,12.524,11.7" fill="#edf0ee"/>
    </clipPath>
    <clipPath id="clip-path-5">
      <path id="Path_36" data-name="Path 36" d="M7.565,17.586c.392-1.792,1.278-4,.61-5.4C6.164,7.96,3.512,4.04,1.109,0L0,.563C2.291,6.23,8.358,10.726,5.358,18.729c1.116-.552,2.12-.747,2.207-1.143" transform="translate(0)" fill="#edf0ee"/>
    </clipPath>
    <clipPath id="clip-path-6">
      <path id="Path_37" data-name="Path 37" d="M1.6,11.644A9.911,9.911,0,0,0,5.75,10.5C9.668,8.077,12.4,4.708,13.2,0,8.982,3.4,7.568,10.3,0,10.178c.524.507,1.094,1.468,1.568,1.468l.034,0" transform="translate(0)" fill="#edf0ee"/>
    </clipPath>
    <clipPath id="clip-path-7">
      <path id="Path_38" data-name="Path 38" d="M6.5,14.113c-.252-.688-.325-1.8-.785-2C2.542,10.782,2.208,8.125,2.129,5.229,2.082,3.484,1.86,1.743,1.715,0L.866.1A17.993,17.993,0,0,0,.093,3.134c-.342,4.176.13,8.172,3.681,10.994a1.2,1.2,0,0,0,.755.2c.6,0,1.356-.195,1.971-.213" fill="#edf0ee"/>
    </clipPath>
    <clipPath id="clip-path-8">
      <path id="Path_39" data-name="Path 39" d="M4.221,14.328A21.552,21.552,0,0,0,.829,0L0,.28C.243,1.5.565,2.714.714,3.947c.4,3.328.71,6.668,1.106,10A13.215,13.215,0,0,0,2.4,16c.632-.554,1.747-1.05,1.822-1.671" transform="translate(0)" fill="#edf0ee"/>
    </clipPath>
    <clipPath id="clip-path-9">
      <path id="Path_40" data-name="Path 40" d="M4.661,11.335C1.169,9.892,2.749,6.952,2.856,4.67,2.917,3.354,4.078,2.089,5.16,0,.192,2.417-1.463,8.869,1.406,12.236c.574.675,1.783.812,2.7,1.2a14.816,14.816,0,0,0,.556-2.1" transform="translate(0)" fill="#edf0ee"/>
    </clipPath>
    <clipPath id="clip-path-10">
      <path id="Path_41" data-name="Path 41" d="M2.555,11.842c.884-2.3,1.538-4.7,2.578-6.917A33.139,33.139,0,0,1,8.11.49L7.544,0A10.9,10.9,0,0,0,5.705,1.288C2.871,4.285-.109,7.257,0,11.8c.017.667.922,1.312,1.417,1.967a13.182,13.182,0,0,0,1.134-1.928" transform="translate(0)" fill="#edf0ee"/>
    </clipPath>
    <clipPath id="clip-path-11">
      <path id="Path_42" data-name="Path 42" d="M7.689,11.241C4.22,8.559.939,5.746,2.855,0-.539,2.481-.76,5.358,1.416,8.576c1.752,2.59,2.7,3.682,3.855,3.682a4.851,4.851,0,0,0,2.418-1.017" transform="translate(0)" fill="#edf0ee"/>
    </clipPath>
    <clipPath id="clip-path-12">
      <path id="Path_43" data-name="Path 43" d="M5.572,12.936a8.531,8.531,0,0,0-.461-2.161C4.056,8.682,2.7,6.723,1.816,4.567A19.932,19.932,0,0,1,1.06,0C-1.335,3.679.65,11.57,3.811,13.143a.788.788,0,0,0,.355.072,12.186,12.186,0,0,0,1.406-.28" fill="#edf0ee"/>
    </clipPath>
    <clipPath id="clip-path-13">
      <path id="Path_44" data-name="Path 44" d="M2.891,9.844C5.407,6.661,7.745,3.337,10.2,0,4.5,1.331,1.988,5.887,0,11.142a4.947,4.947,0,0,0,2.891-1.3" fill="#edf0ee"/>
    </clipPath>
    <clipPath id="clip-path-14">
      <path id="Path_45" data-name="Path 45" d="M0,0C.991,5.451,1.888,10.381,2.783,15.3,5.77,12.16,4.67,5.237,0,0" transform="translate(0)" fill="#edf0ee"/>
    </clipPath>
    <clipPath id="clip-path-15">
      <path id="Path_46" data-name="Path 46" d="M12.8,0c-.872.338-1.316.384-1.568.628C8.307,3.465,5.277,6.06.85,6.083c-.285,0-.567.71-.85,1.089.546.345,1.073.951,1.642.993.112.008.225.012.341.012C5.627,8.177,11.182,4.19,12.8,0" transform="translate(0)" fill="#edf0ee"/>
    </clipPath>
    <clipPath id="clip-path-16">
      <path id="Path_47" data-name="Path 47" d="M7.668,0C3.989.8,5.251,4.092,3.983,5.74,2.5,7.665,1.315,9.814,0,11.866,5.843,10.379,6.4,5.457,7.668,0" fill="#edf0ee"/>
    </clipPath>
    <clipPath id="clip-path-17">
      <path id="Path_48" data-name="Path 48" d="M9.584.723,8.9,0C6.288,2.245,3.519,4.335,1.13,6.793c-1.464,1.507-1.59,3.4.119,4.144L9.584.723" fill="#edf0ee"/>
    </clipPath>
    <clipPath id="clip-path-18">
      <path id="Path_49" data-name="Path 49" d="M6.233,5.992C5.612,2.722,3.25,1.009,0,0,3.982,3.383,5.223,7.412,3.609,12.38c3.163-1.365,3.1-3.891,2.624-6.387" transform="translate(0)" fill="#edf0ee"/>
    </clipPath>
    <clipPath id="clip-path-19">
      <path id="Path_50" data-name="Path 50" d="M12.607,0,0,6.472a5.987,5.987,0,0,0,1.782.251c4.241,0,9.89-3.567,10.824-6.723" transform="translate(0)" fill="#edf0ee"/>
    </clipPath>
    <clipPath id="clip-path-20">
      <path id="Path_51" data-name="Path 51" d="M2.14,8.15A17.771,17.771,0,0,0,11.185.639L10.629,0C9.843.611,9.1,1.287,8.263,1.821,5.98,3.278,3.635,4.639,1.368,6.121A7.545,7.545,0,0,0,0,7.7a10.1,10.1,0,0,0,1.814.5A.852.852,0,0,0,2.14,8.15" transform="translate(0)" fill="#edf0ee"/>
    </clipPath>
    <clipPath id="clip-path-21">
      <path id="Path_52" data-name="Path 52" d="M3.279,6.87C5.759,4.684,8.415,2.462,8.594,0L1.872,7.343A2.492,2.492,0,0,0,3.279,6.87m-1.407.473C1.258,7.405.583,7.4,0,7.5l1.247.53.626-.683" transform="translate(0)" fill="#edf0ee"/>
    </clipPath>
    <clipPath id="clip-path-22">
      <path id="Path_53" data-name="Path 53" d="M3.143,8.022A78.4,78.4,0,0,0,2.429.083L1.294,0Q.647,4.792,0,9.585l1.142.629c.7-.731,2-1.462,2-2.192" transform="translate(0)" fill="#edf0ee"/>
    </clipPath>
  </defs>
  <g id="Mask_Group_5" data-name="Mask Group 5" transform="translate(-1025.001 -4014.113)" clip-path="url(#clip-path)">
    <g id="Group_128" data-name="Group 128" transform="translate(1651.134 4295.114) rotate(133)">
      <g id="Group_76" data-name="Group 76" transform="translate(0 130.211)">
        <g id="Group_35" data-name="Group 35">
          <g id="Group_34" data-name="Group 34" clip-path="url(#clip-path-2)">
            <rect id="Rectangle_50" data-name="Rectangle 50" width="472.187" height="548.974" transform="translate(0 -170.133)" fill="#edf0ee"/>
          </g>
        </g>
        <g id="Group_37" data-name="Group 37" transform="translate(285.81 218.111)">
          <g id="Group_36" data-name="Group 36" transform="translate(0 0)" clip-path="url(#clip-path-3)">
            <rect id="Rectangle_51" data-name="Rectangle 51" width="9.171" height="16.574" transform="translate(-1.124 0)" fill="#edf0ee"/>
          </g>
        </g>
        <g id="Group_39" data-name="Group 39" transform="translate(288.648 194.046)">
          <g id="Group_38" data-name="Group 38" transform="translate(0 0)" clip-path="url(#clip-path-4)">
            <rect id="Rectangle_52" data-name="Rectangle 52" width="13.322" height="13.738" transform="translate(-0.798 0)" fill="#edf0ee"/>
          </g>
        </g>
        <g id="Group_41" data-name="Group 41" transform="translate(286.12 205.331)">
          <g id="Group_40" data-name="Group 40" transform="translate(0 0)" clip-path="url(#clip-path-5)">
            <rect id="Rectangle_53" data-name="Rectangle 53" width="8.843" height="18.729" transform="translate(0 0)" fill="#edf0ee"/>
          </g>
        </g>
        <g id="Group_43" data-name="Group 43" transform="translate(186.443 198.554)">
          <g id="Group_42" data-name="Group 42" transform="translate(0 0)" clip-path="url(#clip-path-6)">
            <rect id="Rectangle_54" data-name="Rectangle 54" width="13.202" height="11.645" transform="translate(0 0)" fill="#edf0ee"/>
          </g>
        </g>
        <g id="Group_45" data-name="Group 45" transform="translate(275.765 187.478)">
          <g id="Group_44" data-name="Group 44" transform="translate(0 0)" clip-path="url(#clip-path-7)">
            <rect id="Rectangle_55" data-name="Rectangle 55" width="6.75" height="14.325" transform="translate(-0.25 0)" fill="#edf0ee"/>
          </g>
        </g>
        <g id="Group_47" data-name="Group 47" transform="translate(258.329 176.958)">
          <g id="Group_46" data-name="Group 46" transform="translate(0 0)" clip-path="url(#clip-path-8)">
            <rect id="Rectangle_56" data-name="Rectangle 56" width="4.845" height="15.998" transform="translate(0 0)" fill="#edf0ee"/>
          </g>
        </g>
        <g id="Group_49" data-name="Group 49" transform="translate(248.407 169.803)">
          <g id="Group_48" data-name="Group 48" transform="translate(0 0)" clip-path="url(#clip-path-9)">
            <rect id="Rectangle_57" data-name="Rectangle 57" width="6.623" height="13.433" transform="translate(-1.463 0)" fill="#edf0ee"/>
          </g>
        </g>
        <g id="Group_51" data-name="Group 51" transform="translate(235.735 173.116)">
          <g id="Group_50" data-name="Group 50" transform="translate(0 0)" clip-path="url(#clip-path-10)">
            <rect id="Rectangle_58" data-name="Rectangle 58" width="8.219" height="13.771" transform="translate(-0.11 0)" fill="#edf0ee"/>
          </g>
        </g>
        <g id="Group_53" data-name="Group 53" transform="translate(255.087 155.794)">
          <g id="Group_52" data-name="Group 52" transform="translate(0 0)" clip-path="url(#clip-path-11)">
            <rect id="Rectangle_59" data-name="Rectangle 59" width="8.449" height="12.258" transform="translate(-0.76 0)" fill="#edf0ee"/>
          </g>
        </g>
        <g id="Group_55" data-name="Group 55" transform="translate(267.123 180.354)">
          <g id="Group_54" data-name="Group 54" transform="translate(0 0)" clip-path="url(#clip-path-12)">
            <rect id="Rectangle_60" data-name="Rectangle 60" width="6.907" height="13.216" transform="translate(-1.335 0)" fill="#edf0ee"/>
          </g>
        </g>
        <g id="Group_57" data-name="Group 57" transform="translate(189.621 190.28)">
          <g id="Group_56" data-name="Group 56" transform="translate(0 0)" clip-path="url(#clip-path-13)">
            <rect id="Rectangle_61" data-name="Rectangle 61" width="10.197" height="11.143" transform="translate(0 0)" fill="#edf0ee"/>
          </g>
        </g>
        <g id="Group_59" data-name="Group 59" transform="translate(281.233 179.303)">
          <g id="Group_58" data-name="Group 58" transform="translate(0 0)" clip-path="url(#clip-path-14)">
            <rect id="Rectangle_62" data-name="Rectangle 62" width="5.77" height="15.301" transform="translate(0 0)" fill="#edf0ee"/>
          </g>
        </g>
        <g id="Group_61" data-name="Group 61" transform="translate(178.98 189.213)">
          <g id="Group_60" data-name="Group 60" transform="translate(0 0)" clip-path="url(#clip-path-15)">
            <rect id="Rectangle_63" data-name="Rectangle 63" width="12.804" height="8.177" transform="translate(0 0)" fill="#edf0ee"/>
          </g>
        </g>
        <g id="Group_63" data-name="Group 63" transform="translate(242.171 158.226)">
          <g id="Group_62" data-name="Group 62" transform="translate(0 0)" clip-path="url(#clip-path-16)">
            <rect id="Rectangle_64" data-name="Rectangle 64" width="7.668" height="11.866" transform="translate(0 0)" fill="#edf0ee"/>
          </g>
        </g>
        <g id="Group_65" data-name="Group 65" transform="translate(203.506 186.182)">
          <g id="Group_64" data-name="Group 64" transform="translate(0 0)" clip-path="url(#clip-path-17)">
            <rect id="Rectangle_65" data-name="Rectangle 65" width="10.044" height="10.937" transform="translate(-0.46 0)" fill="#edf0ee"/>
          </g>
        </g>
        <g id="Group_67" data-name="Group 67" transform="translate(269.099 171.987)">
          <g id="Group_66" data-name="Group 66" transform="translate(0 0)" clip-path="url(#clip-path-18)">
            <rect id="Rectangle_66" data-name="Rectangle 66" width="6.772" height="12.38" transform="translate(0 0)" fill="#edf0ee"/>
          </g>
        </g>
        <g id="Group_69" data-name="Group 69" transform="translate(213.725 175.797)">
          <g id="Group_68" data-name="Group 68" transform="translate(0 0)" clip-path="url(#clip-path-19)">
            <rect id="Rectangle_67" data-name="Rectangle 67" width="12.606" height="6.723" transform="translate(0 0)" fill="#edf0ee"/>
          </g>
        </g>
        <g id="Group_71" data-name="Group 71" transform="translate(216.449 181.092)">
          <g id="Group_70" data-name="Group 70" transform="translate(0 0)" clip-path="url(#clip-path-20)">
            <rect id="Rectangle_68" data-name="Rectangle 68" width="11.185" height="8.208" transform="translate(0 0)" fill="#edf0ee"/>
          </g>
        </g>
        <g id="Group_73" data-name="Group 73" transform="translate(230.793 169.67)">
          <g id="Group_72" data-name="Group 72" transform="translate(0 0)" clip-path="url(#clip-path-21)">
            <rect id="Rectangle_69" data-name="Rectangle 69" width="8.594" height="8.026" transform="translate(0 0)" fill="#edf0ee"/>
          </g>
        </g>
        <g id="Group_75" data-name="Group 75" transform="translate(262.491 168.24)">
          <g id="Group_74" data-name="Group 74" transform="translate(0 0)" clip-path="url(#clip-path-22)">
            <rect id="Rectangle_70" data-name="Rectangle 70" width="3.143" height="10.214" transform="translate(0 0)" fill="#edf0ee"/>
          </g>
        </g>
      </g>
    </g>
  </g>
</svg>
