<svg xmlns="http://www.w3.org/2000/svg" width="37.407" height="39.394" viewBox="0 0 37.407 39.394">
  <g id="emailicon" transform="translate(-752 -4147)">
    <g id="reshot-icon-email-YTPRCLQJVG" transform="translate(748.772 4147)">
      <g id="Group_154" data-name="Group 154" transform="translate(3.232 12.153)">
        <rect id="Rectangle_128" data-name="Rectangle 128" width="1.236" height="7.66" transform="translate(4.839) rotate(39.176)" fill="#60886c"/>
      </g>
      <g id="Group_155" data-name="Group 155" transform="translate(34.775 12.079)">
        <rect id="Rectangle_129" data-name="Rectangle 129" width="7.754" height="1.236" transform="translate(0.958 0) rotate(50.824)" fill="#60886c"/>
      </g>
      <g id="Group_156" data-name="Group 156" transform="translate(3.228 18.03)">
        <path id="Path_110" data-name="Path 110" d="M40.635,79.88H3.228v-21.3H4.464V78.644H39.4V58.583h1.236Z" transform="translate(-3.228 -58.583)" fill="#60886c"/>
      </g>
      <g id="Group_159" data-name="Group 159" transform="translate(3.579 28.682)">
        <g id="Group_157" data-name="Group 157">
          <rect id="Rectangle_130" data-name="Rectangle 130" width="1.236" height="14.585" transform="matrix(0.672, 0.741, -0.741, 0.672, 10.804, 0)" fill="#60886c"/>
        </g>
        <g id="Group_158" data-name="Group 158" transform="translate(25.07 0.001)">
          <rect id="Rectangle_131" data-name="Rectangle 131" width="14.584" height="1.236" transform="translate(0.83 0) rotate(42.191)" fill="#60886c"/>
        </g>
      </g>
      <g id="Group_160" data-name="Group 160" transform="translate(8.116)">
        <path id="Path_111" data-name="Path 111" d="M40.251,29.44H25.6L19.11,22.806V0H46.742V22.806ZM26.121,28.2H39.732l5.775-5.9V1.236H20.346V22.3Z" transform="translate(-19.11)" fill="#60886c"/>
      </g>
      <g id="Group_165" data-name="Group 165" transform="translate(3.694 17.627)">
        <path id="Path_115" data-name="Path 115" d="M29.883,69.086h-13.8L4.743,58.163l.857-.89L16.577,67.851H29.384L40.361,57.273l.858.89Z" transform="translate(-4.743 -57.273)" fill="#60886c"/>
      </g>
    </g>
    <path id="Path_116" data-name="Path 116" d="M11.54,8.18a8.363,8.363,0,0,1,3.86.84,6.012,6.012,0,0,1,2.52,2.35,6.8,6.8,0,0,1,.88,3.49,8.908,8.908,0,0,1-.52,3.03,5.711,5.711,0,0,1-1.51,2.35,3.326,3.326,0,0,1-2.31.9,2.184,2.184,0,0,1-1.54-.5,2.034,2.034,0,0,1-.62-1.36,4.48,4.48,0,0,1-1.57,1.36,4.255,4.255,0,0,1-2.01.5,3.113,3.113,0,0,1-2.39-.93,3.527,3.527,0,0,1-.87-2.51,6.336,6.336,0,0,1,.63-2.8,5.371,5.371,0,0,1,1.75-2.09,4.3,4.3,0,0,1,2.54-.79,2.541,2.541,0,0,1,2.56,1.44l.22-1.24h1.58l-1,5.78a4.513,4.513,0,0,0-.06.7q0,1.2,1.06,1.2a1.726,1.726,0,0,0,1.39-.76,5.23,5.23,0,0,0,.89-1.91,8.967,8.967,0,0,0,.3-2.27,5.232,5.232,0,0,0-1.57-4.06,6.316,6.316,0,0,0-4.43-1.44,8.094,8.094,0,0,0-7.28,4.3,9.152,9.152,0,0,0-1.08,4.42,5.119,5.119,0,0,0,1.58,4.07,6.429,6.429,0,0,0,4.44,1.43A7.692,7.692,0,0,0,12.3,23l.24,1.24a10.114,10.114,0,0,1-3.92.74,8.367,8.367,0,0,1-3.77-.81,5.9,5.9,0,0,1-2.52-2.32,6.783,6.783,0,0,1-.89-3.51,10.389,10.389,0,0,1,1.3-5.15A9.546,9.546,0,0,1,6.35,9.52,10.153,10.153,0,0,1,11.54,8.18ZM9.26,19.72a2.841,2.841,0,0,0,1.66-.53,3.651,3.651,0,0,0,1.2-1.44,4.511,4.511,0,0,0,.44-1.99,2.47,2.47,0,0,0-.57-1.69,2.028,2.028,0,0,0-1.61-.65,2.668,2.668,0,0,0-1.69.57,3.73,3.73,0,0,0-1.13,1.5,4.836,4.836,0,0,0-.4,1.93A2.47,2.47,0,0,0,7.7,19.1,1.957,1.957,0,0,0,9.26,19.72Z" transform="translate(761 4145)" fill="#60886c"/>
  </g>
</svg>
