<svg xmlns="http://www.w3.org/2000/svg" width="39.441" height="39.439" viewBox="0 0 39.441 39.439">
  <g id="phoneicon" transform="translate(-4.57 -4.555)">
    <path id="Path_108" data-name="Path 108" d="M34.946,43.993c-4.426,0-12.634-1.321-20.845-9.532-9.5-9.5-9.777-18.992-9.455-22.633A6.446,6.446,0,0,1,6.121,8.266L8.434,5.48a2.56,2.56,0,0,1,3.78-.175l7.5,7.5a2.56,2.56,0,0,1-.175,3.782l-5.117,4.246A27.438,27.438,0,0,0,19.962,28.6a27.445,27.445,0,0,0,7.772,5.544l4.249-5.117a2.561,2.561,0,0,1,3.782-.175l7.5,7.5a2.56,2.56,0,0,1-.175,3.78L40.3,42.441a6.449,6.449,0,0,1-3.561,1.476C36.241,43.961,35.64,43.993,34.946,43.993ZM10.407,5.717H10.34a1.384,1.384,0,0,0-1.012.5h0L7.015,9.008A5.29,5.29,0,0,0,5.8,11.929c-.307,3.479-.033,12.558,9.12,21.71s18.233,9.427,21.711,9.12a5.287,5.287,0,0,0,2.919-1.213l2.787-2.313a1.4,1.4,0,0,0,.1-2.066l-7.5-7.494a1.4,1.4,0,0,0-2.066.1l-4.532,5.459a.581.581,0,0,1-.682.16,28.4,28.4,0,0,1-8.521-5.966A28.4,28.4,0,0,1,13.175,20.9a.581.581,0,0,1,.16-.682l5.458-4.532a1.4,1.4,0,0,0,.1-2.066l-7.5-7.5a1.382,1.382,0,0,0-.987-.41Zm-1.526.135Z" transform="translate(0 0)" fill="#60886c"/>
  </g>
</svg>
